<svg width="43" height="25" fill="none" xmlns="http://www.w3.org/2000/svg"><g clip-path="url(#clip0)" fill-rule="evenodd" clip-rule="evenodd"><path d="M41.842 12.513C41.842 5.747 36.356.26 29.59.26a12.13 12.13 0 0 0-7.717 2.75A13.197 13.197 0 0 1 25.37 8.71h-1.018a12.216 12.216 0 0 0-3.215-5.065 12.251 12.251 0 0 0-3.194 5.059h-1.019a13.22 13.22 0 0 1 3.462-5.684C18.28 1.315 15.622.26 12.702.26 5.936.261.451 5.747.451 12.513c0 6.766 5.485 12.251 12.251 12.251 2.92 0 5.579-1.054 7.684-2.758a13.22 13.22 0 0 1-3.462-5.685h1.019a12.251 12.251 0 0 0 3.194 5.06 12.216 12.216 0 0 0 3.215-5.066h1.018a13.2 13.2 0 0 1-3.497 5.7 12.132 12.132 0 0 0 7.717 2.75c6.766 0 12.252-5.486 12.252-12.252z" fill="#242424"/><path d="M32.837 15.383l.847-4.533h1.07l.11.447c.192-.224.56-.447 1.182-.447l-.335 1.18c-.303 0-.878-.079-1.245 1.277l-.383 2.076h-1.246zM16.445 9.697h1.232l-.252 1.201h.663l-.22.98h-.633l-.348 1.833c-.063.348-.031.664.68.554l-.08.916c-.268.174-.631.221-.916.221-.284 0-1.217-.174-.98-1.406l.854-4.299zm5.341 3.667c.142-.728.474-2.529-1.69-2.529-1.992 0-2.245 1.976-2.292 2.26-.047.284-.08 2.291 2.054 2.291.522.016 1.28-.047 1.58-.205l.19-.932c-.19.047-.9.11-1.39.11-.49 0-1.28.032-1.138-.995h2.686zm-6.51-1.454l.284-.917c-.585-.221-1.043-.174-1.217-.174-.174 0-1.654-.018-1.88 1.075-.175.838.132 1.184.426 1.312.474.205.743.394.996.521.313.156.255.68-.158.68-.19 0-1.012.095-1.628-.111l-.174.932c.569.158 1.027.158 1.454.158.3 0 1.77.08 1.975-1.28.1-.663-.19-.964-.426-1.106a6.959 6.959 0 0 0-.886-.49c-.252-.11-.442-.537.017-.663.284-.032.869-.032 1.216.063zM7.278 15.386l1.028-5.468H6.284l-1.502 3.32-.237-3.32H2.569L1.51 15.386h1.233l.759-3.95.332 3.95h1.17l1.722-3.856-.727 3.856h1.28zM8.638 10.978l-.19.98c.3-.032 1.107-.158 1.533-.143.427.016.9-.047.759.632-.316.032-2.529-.316-2.876 1.58-.143.933.663 1.407 1.295 1.376.632-.032.806-.111 1.028-.27l.158.254h1.153l.49-2.466c.127-.616.332-2.101-1.738-2.101-.38.015-.806 0-1.612.158zm19.975.205c-.316-.19-.537-.221-.948-.221-.41 0-1.327.393-1.501 1.501-.206 1.312.695 1.96 1.96 1.533l.363 1.106c-.411.19-.822.284-1.501.284-1.28 0-2.671-1.137-2.04-3.445.467-1.7 1.93-2.323 2.782-2.291 1.012.037 1.375.379 1.691.727l-.806.806zm10.51.19c-.238-.174-.38-.538-.964-.538-.68 0-1.739-.126-2.34 1.928-.4 1.373.412 2.623 1.296 2.623.411-.015.822-.19 1.075-.363l.158.364h1.328l1.075-5.753h-1.297l-.331 1.738zm-9.625-.395l-.19.98c.301-.032 1.107-.158 1.534-.143.426.016.9-.047.758.632-.316.032-2.528-.316-2.876 1.58-.142.933.664 1.407 1.296 1.376.632-.032.806-.111 1.027-.27l.158.254h1.154l.49-2.466c.126-.616.331-2.101-1.739-2.101-.379.015-.805 0-1.612.158z" fill="#FFFFFE"/><path d="M19.179 12.542h1.533c.079-.442-.064-.822-.553-.822-.49 0-.838.253-.98.822zm-8.644.822c-.206-.032-.664-.158-1.06.11-.395.269-.505.743-.094.901.395.152.979-.11 1.059-.521l.095-.49zm28.145-.143c.127-.41.058-.923-.079-1.105-.379-.506-1.251-.106-1.517.884-.174.648.206 1.138.632 1.138.459 0 .743-.363.964-.917zm-7.285.143c-.206-.032-.664-.158-1.06.11-.394.269-.505.743-.094.901.396.152.98-.11 1.059-.521l.095-.49z" fill="#242424"/><path d="M21.822 15.386l.837-4.488h1.06l.11.443c.19-.221.553-.443 1.17-.443l-.317 1.186c-.3 0-.885-.095-1.248 1.248l-.38 2.054h-1.232z" fill="#FFFFFE"/></g><defs><clipPath id="clip0"><path fill="#fff" d="M.111 0h42.241v25H.111z"/></clipPath></defs></svg>