<svg width="69" height="19" fill="none" xmlns="http://www.w3.org/2000/svg"><g clip-path="url(#clip0)"><path fill-rule="evenodd" clip-rule="evenodd" d="M28.913 5.596c.323 0 .608.213.7.522l1.481 4.942 3.492-5.142c.136-.201.362-.321.604-.321h2.532a.438.438 0 0 1 .36.688l-8.419 12.15a.732.732 0 0 1-.6.315h-2.53a.44.44 0 0 1-.357-.692l2.621-3.7-2.787-8.181a.438.438 0 0 1 .415-.58h2.488zM18.095 5.36c1.213 0 2.43.265 2.975 1.056l.176.255.11-.704a.439.439 0 0 1 .434-.37h2.518a.442.442 0 0 1 .433.507l-1.361 8.62a.731.731 0 0 1-.722.618H20.39a.439.439 0 0 1-.433-.507l.112-.7s-1.243 1.44-3.486 1.44c-1.307 0-2.404-.376-3.172-1.28-.837-.984-1.178-2.394-.938-3.87.463-2.957 2.84-5.065 5.622-5.065zm37.513 0c1.214 0 2.43.265 2.975 1.056l.176.255.11-.704a.439.439 0 0 1 .434-.37h2.518a.442.442 0 0 1 .434.507l-1.362 8.62a.732.732 0 0 1-.723.618h-2.267a.437.437 0 0 1-.432-.507l.113-.7s-1.244 1.44-3.488 1.44c-1.306 0-2.403-.376-3.171-1.28-.837-.984-1.18-2.394-.939-3.87.463-2.957 2.84-5.065 5.622-5.065zM67.652.732a.437.437 0 0 1 .433.506l-2.129 13.486a.731.731 0 0 1-.722.618h-2.17a.44.44 0 0 1-.434-.507l2.16-13.733a.437.437 0 0 1 .433-.37h2.429zM46.102.73c1.76 0 3.085.465 3.833 1.344.68.8.906 1.941.67 3.394-.522 3.323-2.521 4.999-5.986 4.999h-1.664a.73.73 0 0 0-.722.617l-.603 3.824a.512.512 0 0 1-.505.432h-2.7a.44.44 0 0 1-.432-.507L40.118 1.35a.733.733 0 0 1 .723-.617l5.26-.001zm-37.514 0c1.76 0 3.086.465 3.834 1.344.68.8.906 1.941.67 3.394-.522 3.323-2.521 5-5.986 5H5.442a.73.73 0 0 0-.722.617l-.574 3.638a.73.73 0 0 1-.722.617H.913a.439.439 0 0 1-.433-.507L2.606 1.35a.732.732 0 0 1 .722-.617L8.588.73zm10.104 7.301c-1.435 0-2.596.997-2.822 2.424-.118.699.022 1.327.394 1.768.376.445.961.68 1.692.68 1.457 0 2.598-.966 2.842-2.405.11-.696-.041-1.328-.427-1.78-.384-.45-.964-.687-1.679-.687zm37.513 0c-1.435 0-2.596.997-2.822 2.424-.118.699.021 1.327.395 1.768.375.445.96.68 1.69.68 1.458 0 2.6-.966 2.843-2.405.111-.696-.041-1.328-.427-1.78-.384-.45-.964-.687-1.679-.687zM44.322 3.651h-.542a.438.438 0 0 0-.432.37l-.557 3.524h1.055c1.308-.007 2.592-.118 2.862-1.888.104-.662.02-1.142-.255-1.466-.463-.54-1.36-.54-2.309-.54h.178zm-37.514 0h-.542a.438.438 0 0 0-.432.37l-.557 3.524h1.055c1.309-.007 2.593-.118 2.862-1.888.105-.662.021-1.142-.255-1.466-.463-.54-1.36-.54-2.308-.54h.177z" fill="#242424"/></g><defs><clipPath id="clip0"><path fill="#fff" d="M.352 0h67.739v19H.352z"/></clipPath></defs></svg>