<svg width="39" height="21" fill="none" xmlns="http://www.w3.org/2000/svg"><path fill-rule="evenodd" clip-rule="evenodd" d="M10.983 11.165L14.287.271h2.948L13.93 11.165h-2.948zM9.665.274L7.013 4.892c-.675 1.21-1.07 1.82-1.26 2.585h-.04c.047-.969-.088-2.158-.1-2.83L5.32.273H.357l-.05.293c1.274 0 2.03.64 2.238 1.95l.967 8.648h3.054L12.742.275H9.665zM32.59 11.165l-.08-1.62-3.682-.003-.753 1.623h-3.2L30.678.292h3.928l.983 10.873H32.59zm-.338-6.426c-.033-.805-.06-1.898-.005-2.559h-.044c-.179.541-.95 2.165-1.289 2.964l-1.097 2.388h2.585l-.15-2.793zM20.33 11.475c-2.081 0-3.463-.66-4.449-1.249l1.404-2.145c.886.495 1.58 1.067 3.18 1.067.514 0 1.01-.134 1.291-.621.41-.709-.094-1.09-1.246-1.742l-.569-.37C18.234 5.25 17.496 4.141 18.3 2.207 18.814.97 20.17.032 22.407.032c1.543 0 2.99.667 3.833 1.32l-1.614 1.893c-.823-.665-1.505-1.002-2.285-1.002-.622 0-1.095.24-1.258.564-.307.608.1 1.023.996 1.58l.677.43c2.072 1.307 2.566 2.678 2.047 3.96-.894 2.205-2.643 2.698-4.473 2.698zM3.01 20.64c7.623-3.267 18.32-6.228 32.486-3.263l.149-3.593C20.7 12.152 9.975 16.912 3.011 20.285v.355zM36.395 1.956h-.194V.776h.448c.285 0 .43.1.43.339 0 .214-.13.302-.307.322l.33.52h-.22l-.304-.506h-.183v.505zm.217-.67c.145 0 .274-.014.274-.186 0-.142-.14-.16-.257-.16h-.234v.346h.217zm-.006 1.127c-.613 0-1.05-.46-1.05-1.067 0-.642.485-1.067 1.05-1.067.56 0 1.044.425 1.044 1.067 0 .641-.484 1.067-1.044 1.067zm0-1.949c-.462 0-.821.363-.821.882 0 .485.314.881.821.881.457 0 .816-.36.816-.881 0-.52-.36-.882-.816-.882z" fill="#242424"/></svg>