<?xml version="1.0" standalone="no"?>
<!DOCTYPE svg PUBLIC "-//W3C//DTD SVG 20010904//EN"
 "http://www.w3.org/TR/2001/REC-SVG-20010904/DTD/svg10.dtd">
<svg version="1.0" xmlns="http://www.w3.org/2000/svg"
 width="700.000000pt" height="700.000000pt" viewBox="0 0 700.000000 700.000000"
 preserveAspectRatio="xMidYMid meet">
<metadata>
Created by potrace 1.14, written by Peter Selinger 2001-2017
</metadata>
<g transform="translate(0.000000,700.000000) scale(0.100000,-0.100000)"
fill="#000000" stroke="none">
<path d="M3392 5950 c-194 -131 -472 -380 -597 -533 -42 -52 -41 -52 -144 -32
-114 22 -320 26 -425 8 -103 -17 -162 -49 -221 -120 -27 -32 -52 -60 -55 -63
-9 -8 -166 -223 -185 -253 -25 -39 -16 -145 18 -221 27 -58 128 -169 231 -251
129 -104 200 -171 239 -228 42 -60 87 -146 87 -167 0 -28 59 3 148 78 96 80
208 201 204 221 -6 31 -55 116 -103 176 -58 74 -106 119 -242 229 -59 47 -103
87 -99 89 10 6 74 26 103 33 48 12 219 12 270 1 l52 -12 58 -200 c33 -110 80
-271 105 -357 l46 -157 42 -3 41 -3 -74 -72 c-40 -40 -81 -74 -90 -74 -9 -1
-194 -2 -411 -4 -217 -1 -397 -3 -400 -4 -3 0 -5 -64 -5 -141 1 -77 -1 -144
-4 -148 -3 -5 -40 -24 -81 -43 -196 -88 -276 -166 -281 -271 -2 -39 11 -499
16 -576 2 -30 9 -60 16 -69 10 -12 10 -16 -2 -24 -14 -10 -86 -44 -142 -67
-15 -7 -26 -16 -23 -21 3 -4 32 -97 65 -205 32 -109 61 -200 64 -203 10 -9
192 87 258 137 131 98 150 162 115 385 -13 79 -68 275 -90 317 l-25 47 49 41
c26 22 52 40 58 40 5 0 10 -39 11 -92 16 -747 186 -1304 510 -1668 36 -40 39
-47 27 -65 -7 -11 -55 -92 -106 -180 -51 -88 -99 -167 -106 -175 -6 -8 -14
-24 -18 -35 -6 -20 -2 -20 149 -20 88 0 159 5 164 10 6 6 41 62 79 125 38 63
73 115 78 114 5 0 52 -21 104 -46 105 -52 236 -93 344 -109 39 -6 82 -12 96
-15 35 -6 264 -5 330 1 465 44 830 305 1050 750 85 172 165 409 194 575 3 19
8 46 11 60 18 91 33 192 41 269 3 31 7 72 9 91 6 56 18 279 19 348 0 39 5 62
12 62 6 0 32 -18 58 -41 l46 -41 -19 -32 c-44 -73 -107 -343 -110 -474 -2 -65
2 -88 19 -123 23 -45 70 -93 136 -139 53 -37 224 -123 231 -116 5 5 61 180
108 339 l23 79 -45 19 c-24 10 -48 19 -52 19 -3 0 -23 12 -44 26 -30 20 -36
28 -27 39 6 8 13 33 15 57 6 68 19 528 16 583 -4 112 -103 205 -303 285 -31
13 -58 30 -60 39 -2 9 -3 76 -3 149 1 72 -1 133 -4 133 -3 1 -123 3 -266 4
-143 2 -261 3 -263 4 -8 3 32 51 43 51 7 0 42 44 77 98 162 246 191 294 190
322 -1 36 13 42 107 46 255 10 374 43 485 135 225 185 244 574 39 810 -256
295 -691 264 -851 -60 -35 -71 -37 -80 -37 -170 1 -86 4 -103 31 -161 39 -82
100 -143 184 -184 57 -27 75 -31 150 -31 73 0 93 4 142 28 69 34 128 98 158
173 19 45 27 54 44 52 35 -5 51 -52 37 -112 -33 -142 -131 -191 -401 -201
-153 -6 -211 -26 -288 -101 -31 -30 -62 -54 -68 -54 -6 0 -17 -7 -24 -15 -7
-8 -18 -15 -25 -15 -21 0 -185 100 -185 113 0 7 25 97 56 200 l56 188 -28 42
c-27 40 -112 152 -171 227 -93 115 -327 336 -469 441 -104 77 -197 139 -208
139 -6 0 -44 -22 -84 -50z m183 -86 c50 -36 98 -71 108 -77 16 -11 17 -50 17
-579 l0 -567 -225 0 -225 0 2 566 3 567 50 38 c57 44 167 118 175 118 3 0 46
-30 95 -66z m-392 -1225 c-5 -4 -54 -10 -111 -14 -57 -3 -113 -8 -125 -10 -12
-2 -44 -6 -72 -9 l-50 -5 -79 269 -79 268 24 38 c55 90 192 249 338 394 l156
155 3 -539 c1 -297 -1 -543 -5 -547z m797 874 c58 -60 116 -122 130 -139 90
-107 170 -219 170 -236 0 -7 -35 -130 -77 -275 l-77 -261 -40 4 c-23 2 -58 6
-79 9 -21 2 -80 7 -130 11 -51 3 -97 7 -103 9 -9 3 -12 149 -12 544 l0 541 56
-49 c32 -27 104 -98 162 -158z m1090 113 c227 -58 391 -289 384 -542 -4 -184
-96 -332 -249 -403 -95 -45 -140 -52 -390 -65 -38 -3 -77 -7 -86 -10 -9 -4
-27 4 -44 20 -16 15 -46 34 -66 43 -41 19 -40 26 6 58 48 32 92 42 219 48 253
10 363 57 424 179 59 118 23 246 -73 260 -41 6 -67 -17 -100 -89 -56 -123
-121 -168 -240 -169 -60 -1 -80 4 -137 32 -258 127 -224 489 58 619 90 41 183
47 294 19z m-2460 -297 c41 -6 81 -11 88 -12 6 0 12 -2 12 -4 0 -2 -25 -39
-56 -83 l-55 -79 21 -68 c11 -37 23 -75 25 -83 4 -13 -15 -15 -143 -15 -135 0
-154 -2 -234 -29 l-87 -28 -35 38 c-47 52 -94 141 -97 184 -3 64 1 79 31 114
35 40 98 64 185 73 33 3 61 7 63 8 7 6 213 -6 282 -16z m-575 -314 c41 -71 92
-123 229 -233 158 -127 260 -224 306 -292 71 -105 74 -89 -35 -195 -53 -52
-109 -104 -125 -115 l-29 -21 -25 49 c-45 90 -105 159 -216 252 -36 30 -67 57
-70 60 -3 3 -27 23 -55 45 -127 102 -192 196 -202 290 -6 61 -5 65 111 219
l59 79 12 -45 c6 -24 24 -66 40 -93z m2390 -446 c110 -66 203 -124 207 -127
10 -10 -159 -268 -173 -264 -11 3 -91 54 -99 63 -3 3 -10 8 -15 10 -6 2 -58
33 -116 68 l-105 64 12 41 c7 22 27 85 43 140 17 54 31 105 31 112 0 8 4 14 8
14 4 0 98 -54 207 -121z m171 45 c44 -21 84 -69 84 -100 0 -13 -2 -24 -5 -24
-2 0 -28 15 -57 34 -29 18 -73 45 -97 61 -33 20 -41 29 -30 36 22 14 68 11
105 -7z m-721 -47 c11 -3 61 -8 110 -13 50 -4 93 -9 98 -10 4 -1 11 -2 16 -3
5 0 -10 -65 -33 -143 l-42 -143 -547 -2 -547 -2 -30 102 c-17 56 -37 121 -45
145 -8 23 -11 42 -7 43 4 0 23 2 42 4 19 2 51 6 70 9 19 3 82 8 140 12 58 3
107 8 109 10 7 6 641 -3 666 -9z m335 -351 c-11 -17 -37 -59 -56 -94 -36 -62
-37 -63 -57 -45 -36 31 -97 97 -97 105 0 4 16 8 35 8 32 0 35 3 45 41 6 23 15
52 20 65 l9 24 61 -37 60 -36 -20 -31z m142 -43 c32 -21 58 -41 58 -46 0 -11
-49 -87 -58 -88 -55 -7 -172 -3 -170 6 7 24 94 165 102 165 5 0 36 -17 68 -37z
m-977 -5 c-4 -13 -19 -48 -34 -78 l-26 -55 -202 0 c-112 0 -203 1 -203 3 0 2
19 24 43 48 23 25 50 59 60 75 l19 29 175 0 174 0 -6 -22z m157 -52 c15 -38
28 -72 28 -75 0 -7 -157 -7 -164 0 -2 2 9 37 26 77 27 66 33 73 56 70 21 -2
30 -14 54 -72z m412 36 c14 -21 42 -53 61 -72 19 -19 35 -36 35 -39 0 -10
-399 -6 -409 4 -8 8 -61 132 -61 142 0 2 78 3 174 3 l173 0 27 -38z m-509
-181 c7 -1 10 -473 10 -1422 l0 -1422 -85 6 c-670 48 -1103 522 -1249 1367
-27 153 -30 173 -37 255 -3 39 -7 81 -10 95 -11 73 -24 966 -15 1110 1 13 84
15 688 14 379 -1 693 -2 698 -3z m1450 0 c21 -1 21 -4 19 -448 -1 -418 -7
-603 -21 -713 -3 -25 -6 -56 -8 -70 -17 -183 -26 -202 -39 -85 -4 33 -9 71
-11 85 -2 14 -13 95 -25 180 -12 85 -23 166 -25 180 -2 14 -11 79 -20 145 -22
167 -26 189 -35 199 -13 13 -27 -23 -35 -89 -3 -33 -15 -123 -26 -200 -11 -77
-22 -158 -24 -180 -3 -22 -8 -51 -10 -65 -3 -14 -7 -43 -10 -65 -10 -83 -28
-212 -40 -290 -3 -22 -7 -53 -9 -70 -6 -49 -17 -129 -19 -147 -5 -32 -17 -32
-18 0 -1 18 -2 35 -3 40 -1 4 -6 36 -10 72 -5 36 -10 74 -12 85 -2 11 -9 58
-14 105 -6 47 -13 92 -15 100 -2 8 -7 42 -10 75 -3 33 -8 67 -10 75 -2 8 -6
35 -9 60 -3 25 -10 79 -16 120 -5 41 -13 93 -15 115 -3 22 -10 73 -16 114 -6
41 -13 88 -15 104 -9 76 -36 48 -48 -51 -8 -69 -12 -97 -30 -222 -9 -58 -18
-125 -21 -150 -3 -25 -10 -76 -15 -115 -10 -69 -12 -83 -25 -180 -3 -27 -8
-57 -10 -65 -3 -8 -7 -46 -11 -85 -3 -38 -7 -72 -9 -75 -2 -3 -7 -33 -10 -65
-12 -96 -21 -107 -28 -34 -7 62 -11 96 -21 169 -3 19 -8 53 -11 75 -3 23 -7
50 -9 60 -2 11 -7 52 -11 90 -4 39 -9 79 -11 90 -3 11 -7 36 -9 55 -3 19 -7
49 -10 65 -3 17 -7 50 -10 75 -3 25 -8 56 -10 70 -2 14 -7 52 -11 85 -5 33 -9
62 -9 65 -1 3 -5 37 -10 75 -10 89 -22 122 -37 107 -6 -6 -13 -26 -15 -44 -1
-18 -10 -82 -19 -143 -9 -60 -18 -123 -20 -140 -2 -16 -8 -61 -14 -100 -5 -38
-12 -87 -15 -109 -6 -51 -14 -113 -21 -156 -3 -19 -7 -50 -9 -68 -8 -67 -26
-198 -30 -218 -8 -53 -19 -140 -17 -146 1 -5 -2 -8 -7 -8 -6 0 -9 8 -9 18 1
14 -13 120 -27 212 -2 14 -6 43 -9 65 -3 22 -12 90 -21 150 -8 61 -18 128 -21
150 -3 22 -7 51 -9 65 -2 14 -7 50 -10 80 -4 30 -9 63 -11 74 -2 10 -6 44 -9
75 -4 31 -8 63 -10 71 -2 8 -7 42 -11 75 -8 76 -21 112 -35 98 -9 -9 -19 -64
-34 -183 -3 -25 -7 -56 -10 -70 -4 -23 -9 -64 -21 -160 -2 -19 -8 -64 -14
-100 -5 -36 -12 -81 -14 -100 -16 -121 -27 -199 -30 -216 -3 -16 -18 -132 -20
-156 -1 -3 -3 -9 -6 -11 -4 -4 -5 1476 -1 1518 1 7 229 10 679 9 372 -1 686
-2 697 -3z m-2900 -487 c1 -167 0 -176 -20 -186 -11 -6 -48 -33 -82 -60 -72
-57 -77 -56 -139 29 -114 157 -79 250 132 353 55 27 101 46 104 44 2 -3 5 -84
5 -180z m3141 111 c98 -55 148 -118 146 -182 -2 -47 -46 -135 -92 -182 -22
-23 -44 -41 -48 -41 -5 0 -17 9 -27 20 -9 10 -43 36 -74 57 -31 21 -58 41 -61
45 -4 5 -5 321 -1 350 1 9 80 -24 157 -67z m-3365 -438 c82 -78 98 -101 93
-133 -12 -75 -127 -234 -152 -210 -2 3 -6 54 -8 113 -9 235 -11 303 -10 303 1
0 35 -33 77 -73z m3503 -69 c-6 -196 -11 -268 -19 -276 -12 -12 -97 91 -125
152 -21 46 -26 66 -19 89 7 24 140 170 161 175 3 1 4 -62 2 -140z m-1589 -53
c4 -27 8 -62 10 -78 2 -15 9 -62 15 -105 6 -43 13 -96 15 -117 5 -34 14 -102
40 -283 3 -18 8 -54 11 -80 3 -26 11 -90 19 -142 8 -52 17 -120 21 -150 13
-109 19 -135 34 -135 15 0 22 28 34 136 4 31 8 66 10 76 3 11 7 44 11 74 3 30
8 61 10 69 2 8 6 42 10 75 3 33 8 67 10 75 4 14 8 51 20 150 3 25 7 56 10 70
2 14 7 43 10 65 2 22 9 72 15 111 5 40 12 96 16 125 3 30 10 70 14 89 l8 35 2
-32 c1 -18 3 -36 4 -40 1 -5 6 -37 11 -73 5 -36 9 -67 10 -70 1 -5 14 -95 20
-145 2 -11 8 -58 15 -105 18 -129 18 -131 26 -195 3 -33 8 -62 9 -65 2 -3 6
-37 10 -75 4 -39 9 -72 10 -75 2 -3 7 -30 10 -60 18 -147 31 -214 42 -217 13
-5 20 13 28 77 3 25 8 56 10 70 2 14 7 48 10 75 3 28 8 61 10 75 2 14 11 79
20 145 20 150 21 157 39 285 9 58 18 123 20 145 5 38 20 144 32 230 3 22 7 41
9 43 1 1 8 -41 15 -95 6 -54 13 -104 15 -113 1 -8 6 -40 10 -70 3 -30 8 -66
10 -80 3 -14 7 -43 9 -65 6 -47 45 -329 51 -365 2 -14 9 -63 15 -110 19 -148
21 -164 30 -203 16 -73 35 -61 45 28 3 33 13 105 20 160 8 55 17 123 20 150 4
28 8 57 10 65 2 8 7 42 10 75 4 33 8 67 10 75 2 8 7 40 10 70 3 30 8 66 10 80
3 14 7 39 9 55 2 17 7 48 10 70 3 22 8 58 11 80 17 149 33 222 36 164 2 -34
20 -174 35 -269 8 -58 24 -172 30 -221 3 -30 12 -87 19 -126 11 -69 11 -79
-16 -180 -159 -617 -502 -993 -1005 -1103 -112 -24 -264 -37 -273 -22 -8 14
-6 769 3 857 4 39 14 111 21 160 8 50 16 113 20 140 7 59 24 180 30 215 2 14
6 45 9 70 3 25 8 61 11 80 2 19 7 58 11 85 3 28 8 58 10 69 2 10 6 39 9 65 5
51 14 115 20 146 2 11 4 31 4 44 1 37 8 22 16 -34z m-1769 -175 c3 -14 9 -41
14 -60 12 -51 23 -138 22 -187 -2 -56 -22 -94 -77 -140 -45 -38 -206 -136
-212 -129 -4 4 -93 288 -93 297 0 4 15 12 33 20 101 40 218 139 268 227 22 39
24 40 32 19 5 -12 11 -33 13 -47z m3287 -95 c28 -25 83 -61 122 -81 38 -20 72
-38 74 -40 2 -2 -16 -68 -40 -148 -30 -98 -49 -146 -58 -146 -22 0 -164 87
-214 131 -26 22 -51 55 -58 76 -15 47 -6 164 21 283 l22 90 40 -60 c22 -33 63
-80 91 -105z m-2545 -1432 c31 -26 56 -51 54 -57 -6 -18 -124 -211 -132 -216
-15 -10 -175 -5 -171 5 6 19 183 315 187 315 2 0 30 -21 62 -47z"/>
<path d="M4885 5480 c-141 -32 -223 -177 -165 -290 35 -68 135 -102 188 -64
13 9 39 49 58 90 46 95 105 145 187 156 43 6 41 14 -15 50 -84 55 -174 76
-253 58z m137 -66 c25 -8 23 -16 -12 -39 -37 -24 -78 -81 -107 -149 -21 -49
-23 -51 -58 -50 -50 2 -78 31 -81 86 -1 24 4 55 12 70 16 32 67 71 109 86 29
10 100 8 137 -4z"/>
<path d="M2260 3515 c0 -135 3 -245 8 -246 33 -5 115 -4 129 2 13 5 22 26 32
70 23 113 54 149 129 149 l43 0 -6 -632 c-3 -348 -7 -662 -9 -698 -3 -37 -15
-95 -30 -134 -14 -37 -26 -73 -26 -78 0 -5 23 -7 55 -3 53 5 55 5 70 -25 19
-36 73 -90 90 -90 18 0 85 71 92 98 5 21 9 22 64 17 33 -4 59 -3 59 1 0 3 -11
38 -25 76 -14 38 -27 90 -30 116 -3 26 -8 341 -12 700 l-6 652 44 0 c76 0 107
-36 130 -150 7 -36 16 -67 20 -70 6 -4 49 -5 127 -1 l22 1 0 245 0 245 -485 0
-485 0 0 -245z m909 0 c0 -185 0 -185 -22 -185 -14 0 -23 6 -24 18 -3 31 -35
116 -56 146 -28 40 -74 56 -163 56 l-76 0 5 -682 c6 -690 8 -755 26 -817 6
-19 9 -37 6 -39 -2 -2 -19 1 -36 7 -36 12 -50 3 -42 -29 5 -18 -19 -74 -36
-84 -15 -9 -51 58 -51 93 0 28 -3 32 -20 27 -11 -3 -29 -9 -40 -12 -22 -6 -25
3 -10 40 18 48 20 122 27 809 l6 687 -77 0 c-129 0 -170 -30 -207 -151 -14
-45 -26 -69 -39 -72 -17 -4 -18 7 -18 184 l-1 189 424 0 423 0 1 -185z"/>
</g>
</svg>
