<?xml version="1.0" encoding="UTF-8"?><svg id="a" xmlns="http://www.w3.org/2000/svg" viewBox="0 0 74.93148 141.088"><defs><style>.b{fill:none;}.c{fill:#a58244;}</style></defs><path class="b" d="M37.93404,59.98467c1.81201,1.17401,3.55499,2.302,5.04999,3.40002,2.93402-4.164,5.91602-5.48199,8.81-6.76202,1.21399-.53699,2.36102-1.04401,3.55402-1.77295,.04401-.02704,.09003-.05304,.13898-.07605,4.98199-2.50299,8.211-7.17297,9.09302-13.14899,.77301-5.24097-.36902-10.88397-2.92401-15.38696-.453,3.88599-1.97699,7.82898-4.22198,10.28094-.58301,.63904-1.521,.81104-2.29498,.41803-.771-.39203-1.18701-1.25-1.01599-2.09998,1.427-7.065-2.15802-12.62903-5.95605-18.52106-2.19196-3.40399-4.44397-6.89899-5.74396-10.77594-2.164,2.98596-2.38599,7.48199-2.62,12.185-.21503,4.31696-.43604,8.78198-2.37305,12.08899-.44299,.75098-1.328,1.11499-2.17297,.88501-.83899-.23102-1.42102-.99603-1.41699-1.86603,.005-1.26001-.57703-2.96198-1.37598-4.513-.91302,3.05103-2.94202,5.448-4.81006,7.65302-1.50098,1.77197-2.91895,3.44501-3.83398,5.39801-4.69598,9.44897,3.24603,15.578,14.11401,22.61395Z"/><path class="b" d="M20.35104,35.69469c1.11304-2.37598,2.76501-4.32703,4.36304-6.21198,2.66199-3.14203,4.95996-5.85699,4.258-10.05402-.13104-.77399,.22095-1.54803,.88898-1.95898,.66797-.41101,1.52002-.37604,2.15002,.08698,1.31299,.96503,2.61298,2.65198,3.63599,4.53998,.15198-1.44299,.229-2.98596,.30701-4.56299,.31396-6.32599,.67096-13.49597,6.48999-17.22894,.54596-.34802,1.229-.40204,1.81897-.14099,.59003,.26196,1.01202,.80096,1.12201,1.43896,.76001,4.461,3.31702,8.427,6.021,12.62598,2.54199,3.94598,5.13904,7.97601,6.28802,12.56,.37097-2.146,.35602-4.32098-.146-6.04797-.242-.836,.104-1.729,.84698-2.18402,.742-.453,1.69702-.35199,2.32703,.24701,5.92499,5.612,8.93695,14.78998,7.66998,23.383-1.06598,7.22601-5.008,12.90302-11.10498,15.99298-1.38306,.83899-2.67902,1.41199-3.935,1.96704-3.09906,1.37-5.54602,2.45197-8.23102,7.034-.289,.49298-.78003,.82996-1.34302,.92499-.10498,.01898-.21198,.02698-.31799,.02698-.45703,0-.90198-.16199-1.25403-.461-1.58295-1.35498-3.90594-2.85999-6.36798-4.45197-9.31097-6.03003-22.06702-14.28705-15.487-27.52502Z"/><path class="c" d="M35.83804,63.21972c2.46204,1.59198,4.78503,3.09698,6.36798,4.45197,.35205,.29901,.797,.461,1.25403,.461,.10602,0,.21301-.008,.31799-.02698,.56299-.09503,1.05402-.43201,1.34302-.92499,2.685-4.58203,5.13196-5.664,8.23102-7.034,1.25598-.55505,2.55194-1.12805,3.935-1.96704,6.09698-3.08997,10.039-8.76697,11.10498-15.99298,1.26697-8.59302-1.745-17.771-7.66998-23.383-.63-.599-1.58502-.70001-2.32703-.24701-.74298,.45502-1.08899,1.34802-.84698,2.18402,.50201,1.72699,.51697,3.90198,.146,6.04797-1.14899-4.58398-3.74603-8.61401-6.28802-12.56-2.70398-4.19897-5.26099-8.16498-6.021-12.62598-.10999-.638-.53198-1.177-1.12201-1.43896-.58997-.26105-1.27301-.20703-1.81897,.14099-5.81903,3.73297-6.17603,10.90295-6.48999,17.22894-.078,1.57703-.15503,3.12-.30701,4.56299-1.02301-1.888-2.323-3.57495-3.63599-4.53998-.63-.46301-1.48206-.49799-2.15002-.08698-.66803,.41095-1.02002,1.185-.88898,1.95898,.70197,4.19702-1.59601,6.91199-4.258,10.05402-1.59802,1.88495-3.25,3.836-4.36304,6.21198-6.58002,13.23798,6.17603,21.495,15.487,27.52502Zm-12.01801-25.849c.91504-1.953,2.33301-3.62604,3.83398-5.39801,1.86804-2.20502,3.89703-4.60199,4.81006-7.65302,.79895,1.55103,1.38098,3.25299,1.37598,4.513-.00403,.87,.578,1.63501,1.41699,1.86603,.84497,.22998,1.72998-.13403,2.17297-.88501,1.93701-3.30701,2.15802-7.77203,2.37305-12.08899,.23401-4.703,.45599-9.19904,2.62-12.185,1.29999,3.87695,3.552,7.37195,5.74396,10.77594,3.79803,5.89203,7.38306,11.45605,5.95605,18.52106-.17102,.84998,.245,1.70795,1.01599,2.09998,.77399,.39301,1.71198,.22101,2.29498-.41803,2.245-2.45197,3.76898-6.39496,4.22198-10.28094,2.55499,4.50299,3.69702,10.146,2.92401,15.38696-.88202,5.97601-4.11102,10.646-9.09302,13.14899-.04895,.02301-.09497,.04901-.13898,.07605-1.19299,.72894-2.34003,1.23596-3.55402,1.77295-2.89398,1.28003-5.87598,2.59802-8.81,6.76202-1.495-1.09802-3.23798-2.22601-5.04999-3.40002-10.86798-7.03595-18.81-13.16498-14.11401-22.61395Z"/><path class="c" d="M43.45596,74.73699c-3.55402-2.75299-13.94305-9.85797-24.59705-8.11102-6.44995,1.05804-11.776,5.13904-15.83301,12.13202-6.83398,11.78003-2.04095,26.33203,13.86005,42.08502,11.65399,11.54596,24.987,19.63196,25.54999,19.96899,.30597,.185,.64899,.276,.995,.276,.34302,0,.68701-.091,.99298-.27399,.56-.33905,13.90002-8.414,25.56403-19.95001,1.7915-1.77197,3.43439-3.52795,4.94354-5.26752v-6.06964c-10.30212,13.44977-27.23669,24.65741-31.50055,27.36511-7.18298-4.56995-50.34802-33.31696-37.073-56.20099,3.448-5.94196,7.85901-9.39398,13.10999-10.25995,.927-.15204,1.85699-.22406,2.78204-.22406,10.12994,0,19.82996,8.37006,19.935,8.46106,.72498,.638,1.81,.63599,2.53796,.00195,.11603-.10095,11.66602-10.04999,22.72302-8.22101,2.72961,.45276,5.22876,1.61023,7.48553,3.44629v-4.72156c-2.12256-1.27692-4.41534-2.12402-6.87256-2.52869-10.65399-1.75201-21.047,5.341-24.60297,8.09198Z"/></svg>