<?xml version="1.0" encoding="UTF-8"?><svg xmlns="http://www.w3.org/2000/svg" viewBox="0 0 75 75"><defs><style>.c{fill:none;stroke:#242424;stroke-linecap:round;stroke-linejoin:round;stroke-width:1.5px;}</style></defs><g id="a"/><g id="b"><path class="c" d="M55.36131,30.67689c-.89615-1.24032-1.76852-2.49145-2.63878-3.75126-.20557-.30304-.57352-.67969-1.30743-.59311-3.35935,.44591-6.72107,.87234-10.08491,1.2966l.27058-2.12565c.33346-2.62567,.6668-5.24917,.98718-7.88567,.04756-.43508-.17321-.97839-.50654-1.23383-1.29013-.99572-2.60628-1.9633-3.93102-2.9114-.34192-.24676-.93513-.25109-1.26846-.00865-1.32685,.95027-2.64076,1.92001-3.93525,2.91573-.33122,.25976-.55846,.80091-.51077,1.23599,.25102,2.09535,.51301,4.18635,.77923,6.27737l.31166,2.46982c.05192,.41344,.09962,.82689,.14506,1.24681l.00211,.01949c-3.34217-.41993-6.6821-.84203-10.02215-1.28578-.38737-.04761-.94371-.04112-1.37019,.58445-.87237,1.27495-1.76628,2.54124-2.65807,3.80321-.33994,.47189-.35077,.94162-.02603,1.39835,.40917,.57578,.81609,1.15589,1.22301,1.73602,.51513,.73596,1.0325,1.4741,1.56282,2.20789,.22737,.31386,.71436,.51517,1.10397,.46973,1.89403-.22513,3.78595-.4654,5.67999-.70351l4.67986-.58227-.75109,11.56551c-.22513,3.53263-.44814,7.06745-.65596,10.60441-.01942,.41777,.22301,.93295,.56282,1.19703,.66455,.51085,1.33557,1.00872,2.00884,1.50657,.57352,.42426,1.14506,.85069,1.71435,1.28362,.25974,.20131,.51949,.30088,.77487,.30088,.26199,0,.52173-.10175,.78359-.30304,1.19923-.91564,2.40929-1.81612,3.63441-2.69495,.49782-.35933,.71-.80957,.6623-1.41349-.12551-1.84424-.24244-3.69066-.35923-5.53707l-1.065-16.52464c.02814,.00433,.05404,.00651,.08218,.00867l1.99576,.25325c2.72307,.342,5.44614,.68618,8.16709,1.04551,.59743,.08008,1.01744-.12122,1.35513-.61476,.85057-1.24681,1.71858-2.48496,2.59743-3.71013,.37667-.52601,.37891-1.03035,.00661-1.5477Z"/></g></svg>