<?xml version="1.0" encoding="UTF-8"?><svg xmlns="http://www.w3.org/2000/svg" viewBox="0 0 75 75"><defs><style>.c{stroke-miterlimit:10;}.c,.d{fill:none;stroke:#242424;stroke-width:1.5px;}.d{stroke-linecap:round;stroke-linejoin:round;}</style></defs><g id="a"/><g id="b"><g><g><path class="c" d="M24.16649,37.99242c3.68181,0,6.66651-2.9847,6.66651-6.6665s-2.9847-6.6665-6.66651-6.6665-6.66649,2.9847-6.66649,6.6665,2.98469,6.6665,6.66649,6.6665Z"/><path class="c" d="M37.5005,37.99242c3.6818,0,6.6665-2.9847,6.6665-6.6665s-2.9847-6.6665-6.6665-6.6665-6.6665,2.9847-6.6665,6.6665,2.9847,6.6665,6.6665,6.6665Z"/><path class="c" d="M50.8335,37.99242c3.6818,0,6.6665-2.9847,6.6665-6.6665s-2.9847-6.6665-6.6665-6.6665-6.6664,2.9847-6.6664,6.6665,2.9846,6.6665,6.6664,6.6665Z"/><path class="c" d="M30.8329,49.58902c3.6818,0,6.6665-2.9846,6.6665-6.6664s-2.9847-6.6665-6.6665-6.6665-6.66652,2.9847-6.66652,6.6665,2.98472,6.6664,6.66652,6.6664Z"/><path class="c" d="M44.167,49.58902c3.6818,0,6.6665-2.9846,6.6665-6.6664s-2.9847-6.6665-6.6665-6.6665-6.6665,2.9847-6.6665,6.6665,2.9847,6.6664,6.6665,6.6664Z"/><path class="c" d="M37.5005,61.18482c3.6818,0,6.6665-2.9847,6.6665-6.6665s-2.9847-6.6665-6.6665-6.6665-6.6665,2.9847-6.6665,6.6665,2.9847,6.6665,6.6665,6.6665Z"/></g><path class="d" d="M38.9583,24.49959l.02449-8.82706c.00054-.24319-.03036-.48543-.09191-.7207h0c-.16577-.6336-.71629-1.12768-1.37116-1.13643l-.0284-.00022c-.6483-.00127-1.19655,.48858-1.3699,1.11328h0c-.06956,.25068-.10483,.50964-.10483,.7698v8.80134"/></g></g></svg>