<svg width="163" height="94" viewBox="0 0 163 94" fill="none" xmlns="http://www.w3.org/2000/svg">
<path d="M15.8204 79.9277C16.6912 79.902 16.8215 79.7346 16.8215 79.1547V72.6096C16.8215 72.0296 16.6912 71.8622 15.8204 71.8361V71.3853H19.1488V71.8361C18.3035 71.8622 18.1741 72.0296 18.1741 72.6096V76.9127C18.3298 76.3327 19.8508 74.4516 20.9822 73.073C21.71 72.197 21.645 71.8235 20.8001 71.8105V71.3853H23.8293V71.8361C23.5146 71.8411 23.2053 71.9181 22.9256 72.0612C22.6459 72.2043 22.4034 72.4095 22.2171 72.6609C21.6582 73.2921 20.6444 74.529 20.2017 75.0963C20.5141 75.6115 21.8793 77.557 22.9453 78.8969C23.4783 79.5799 23.7644 79.902 24.2456 79.9146V80.3533C23.9512 80.4211 23.6507 80.4599 23.3485 80.4689C22.5812 80.4689 22.243 80.2885 21.5669 79.4125C20.7552 78.3587 20.0085 77.2572 19.3309 76.1141L19.162 76.3201C18.5075 77.0461 18.1504 77.9882 18.1609 78.9617C18.1609 79.5542 18.3035 79.902 19.1488 79.9277V80.3789H15.8204V79.9277Z" fill="#242424"/>
<path d="M25.7781 79.9277C26.6489 79.902 26.7792 79.7346 26.7792 79.1547V72.6096C26.7792 72.0296 26.6489 71.8622 25.7781 71.8361V71.3853H29.1324V71.8361C28.2611 71.8622 28.1317 72.0296 28.1317 72.6096V79.1803C28.1317 79.5412 28.2743 79.6959 28.6121 79.6959H29.6136C30.5757 79.6959 30.9657 79.3994 31.2776 77.763H31.8369L31.6676 80.3789H25.7781V79.9277Z" fill="#242424"/>
<path d="M37.3741 80.5335C34.7607 80.5335 33.3955 78.665 33.3955 75.8822C33.3955 73.0989 34.7607 71.2303 37.3741 71.2303C39.9874 71.2303 41.3526 73.0989 41.3526 75.8822C41.3526 78.665 39.9874 80.5335 37.3741 80.5335ZM37.3741 71.862C35.5149 71.862 34.8257 73.9236 34.8257 75.8822C34.8257 77.8403 35.5149 79.9018 37.3741 79.9018C39.2337 79.9018 39.9225 77.8403 39.9225 75.8822C39.9225 73.9236 39.2337 71.862 37.3741 71.862Z" fill="#242424"/>
<path d="M46.2003 79.9019C47.3186 79.9019 48.1117 79.1932 48.1117 78.2655C48.1117 77.4281 47.6177 76.9386 46.4214 76.526L45.5629 76.2169C44.1849 75.7274 43.4571 74.967 43.4571 73.7302C43.4571 72.3772 44.51 71.2304 46.4083 71.2304C48.1117 71.2304 49.0997 72.0812 49.0997 72.8668C49.1142 72.9831 49.1029 73.1013 49.0666 73.2129C49.0302 73.3245 48.9697 73.4268 48.8891 73.5128C48.8086 73.5987 48.7101 73.6662 48.6006 73.7104C48.491 73.7547 48.3729 73.7746 48.2547 73.7689C48.0986 72.5707 47.3966 71.8621 46.3692 71.8621C45.3422 71.8621 44.7311 72.4546 44.7311 73.3693C44.7311 74.091 45.2122 74.6192 46.1744 74.954L47.1883 75.3153C48.6443 75.8305 49.373 76.5904 49.373 77.8659C49.373 79.3993 48.0464 80.5336 46.1613 80.5336C44.4582 80.5336 43.1452 79.6701 43.1452 78.678C43.1309 78.5582 43.1425 78.4366 43.1791 78.3215C43.2157 78.2064 43.2766 78.1002 43.3576 78.0101C43.4387 77.92 43.5381 77.848 43.6493 77.7988C43.7606 77.7496 43.8811 77.7243 44.0029 77.7246C44.12 78.8067 44.9522 79.9019 46.2003 79.9019Z" fill="#242424"/>
<path d="M52.8299 79.9277C53.7007 79.902 53.831 79.7346 53.831 79.1547V72.0422H53.012C52.2315 72.0422 51.8415 72.403 51.6077 73.8334H51.0615V71.3853H57.9394V73.8334H57.4064C57.1721 72.403 56.7821 72.0422 55.989 72.0422H55.1831V79.1547C55.1831 79.7346 55.3129 79.902 56.1842 79.9277V80.3789H52.8299V79.9277Z" fill="#242424"/>
<path d="M59.7063 79.9277C60.5771 79.902 60.7074 79.7346 60.7074 79.1547V72.6096C60.7074 72.0296 60.5771 71.8622 59.7063 71.8361V71.3853H66.2074V73.5756H65.6739C65.4269 72.287 65.0369 72.0683 64.0876 72.0683H62.0599V75.4441H63.6326C64.3218 75.4441 64.4517 75.1863 64.5561 74.4516H65.0242V77.0675H64.5561C64.4517 76.3327 64.3218 76.0754 63.6326 76.0754H62.0599V79.2577C62.0599 79.5668 62.2025 79.6959 62.5144 79.6959H64.3609C65.3225 79.6959 65.6998 79.3994 65.9858 78.0465H66.5193L66.3631 80.3789H59.7063V79.9277Z" fill="#242424"/>
<path d="M68.4935 79.9276C69.3779 79.902 69.4951 79.7346 69.4951 79.1547V72.6478C69.4951 72.0683 69.3648 71.9266 68.4935 71.9135V71.4627C69.209 71.3722 70.7686 71.2949 71.9 71.2949C74.3186 71.2949 75.6447 72.0813 75.6447 73.8977C75.6447 75.3793 74.5397 76.011 73.4341 76.2297C73.9509 77.1373 74.5197 78.0149 75.1376 78.8582C75.6057 79.4768 75.9957 79.889 76.5805 79.9276V80.3528C76.2763 80.4128 75.9675 80.4473 75.6575 80.4559C74.3444 80.4559 73.7724 79.5155 72.108 76.4362L71.861 76.4744C70.9511 76.6162 70.8471 76.887 70.8471 77.9821V79.1547C70.8471 79.7346 70.9643 79.902 71.8092 79.9276V80.3785H68.4935V79.9276ZM70.8471 76.1397C71.3235 75.9146 71.8409 75.7875 72.3681 75.7658C73.5644 75.6241 74.2146 75.1089 74.2146 73.8847C74.2146 72.6739 73.4732 71.9266 71.9132 71.9266C70.9643 71.9266 70.8471 72.0039 70.8471 72.3769V76.1397Z" fill="#242424"/>
<path d="M81.7788 79.9277C82.6496 79.902 82.7799 79.7346 82.7799 79.1547V72.6995C82.7799 72.1196 82.6496 71.8622 81.7788 71.8361V71.3853H83.7551C85.4446 73.4788 86.9703 75.6971 88.3189 78.0209V72.6483C88.3189 72.0683 88.1496 71.8622 87.2656 71.8361V71.3853H90.061V71.8361C89.2419 71.8622 89.1117 72.0296 89.1117 72.6096V80.3789H88.2013C86.8152 77.9322 85.2691 75.5778 83.5731 73.3308V79.116C83.5731 79.6959 83.742 79.902 84.6128 79.9277V80.3789H81.7788V79.9277Z" fill="#242424"/>
<path d="M91.9183 79.9277C92.7892 79.902 92.9194 79.7346 92.9194 79.1547V72.6096C92.9194 72.0296 92.7892 71.8622 91.9183 71.8361V71.3853H98.4194V73.5756H97.886C97.639 72.287 97.249 72.0683 96.2996 72.0683H94.272V75.4441H95.8447C96.5339 75.4441 96.6637 75.1863 96.7682 74.4516H97.2362V77.0675H96.7682C96.6637 76.3327 96.5339 76.0754 95.8447 76.0754H94.272V79.2577C94.272 79.5668 94.4145 79.6959 94.7264 79.6959H96.5729C97.5346 79.6959 97.9118 79.3994 98.1979 78.0465H98.7313L98.5751 80.3789H91.9183V79.9277Z" fill="#242424"/>
<path d="M103.865 71.8363C103.007 71.862 102.89 72.0294 102.89 72.6097V77.3124C102.89 79.0384 103.696 79.8505 105.01 79.8505C106.322 79.8505 107.246 79.1418 107.246 77.3124V72.635C107.246 72.0555 107.089 71.862 106.219 71.8363V71.3851H108.962V71.8363C108.169 71.875 108.039 72.0294 108.039 72.6097V77.0933C108.039 79.6183 106.699 80.533 104.827 80.533C102.968 80.533 101.538 79.7474 101.538 77.3124V72.6097C101.538 72.0294 101.408 71.875 100.563 71.8363V71.3851H103.865V71.8363Z" fill="#242424"/>
<path d="M113.589 79.9019C114.707 79.9019 115.5 79.1932 115.5 78.2655C115.5 77.4281 115.006 76.9386 113.81 76.526L112.951 76.2169C111.573 75.7274 110.845 74.967 110.845 73.7302C110.845 72.3772 111.898 71.2304 113.797 71.2304C115.5 71.2304 116.488 72.0812 116.488 72.8668C116.503 72.9831 116.491 73.1013 116.455 73.2129C116.418 73.3245 116.358 73.4268 116.277 73.5128C116.197 73.5987 116.098 73.6662 115.989 73.7104C115.879 73.7547 115.761 73.7746 115.643 73.7689C115.487 72.5707 114.785 71.8621 113.758 71.8621C112.731 71.8621 112.119 72.4546 112.119 73.3693C112.119 74.091 112.601 74.6192 113.563 74.954L114.577 75.3153C116.033 75.8305 116.761 76.5904 116.761 77.8659C116.761 79.3993 115.435 80.5336 113.55 80.5336C111.847 80.5336 110.534 79.6701 110.534 78.678C110.519 78.5582 110.531 78.4366 110.567 78.3215C110.604 78.2064 110.665 78.1002 110.746 78.0101C110.827 77.92 110.926 77.848 111.038 77.7988C111.149 77.7496 111.269 77.7243 111.391 77.7246C111.508 78.8067 112.341 79.9019 113.589 79.9019Z" fill="#242424"/>
<path d="M120.218 79.9277C121.089 79.902 121.219 79.7346 121.219 79.1547V72.0422H120.4C119.62 72.0422 119.23 72.403 118.996 73.8334H118.45V71.3853H125.328V73.8334H124.795C124.561 72.403 124.171 72.0422 123.377 72.0422H122.572V79.1547C122.572 79.7346 122.701 79.902 123.573 79.9277V80.3789H120.218V79.9277Z" fill="#242424"/>
<path d="M127.12 79.9277C128.004 79.902 128.121 79.7346 128.121 79.1547V72.6096C128.121 72.0296 128.004 71.8622 127.12 71.8361V71.3853H130.475V71.8361C129.591 71.8622 129.474 72.0296 129.474 72.6096V79.1547C129.474 79.7346 129.591 79.902 130.475 79.9277V80.3789H127.12V79.9277Z" fill="#242424"/>
<path d="M132.476 79.9277C133.347 79.902 133.477 79.7346 133.477 79.1547V72.6096C133.477 72.0296 133.347 71.8622 132.476 71.8361V71.3853H138.691V73.6143H138.158C137.911 72.287 137.521 72.0683 136.571 72.0683H134.83V75.4954H136.22C136.896 75.4954 137.039 75.238 137.143 74.5033H137.612V77.1192H137.143C137.039 76.3845 136.896 76.1267 136.22 76.1267H134.83V79.1547C134.83 79.7346 134.959 79.902 135.83 79.9277V80.3789H132.476V79.9277Z" fill="#242424"/>
<path d="M142.278 79.9277C143.149 79.902 143.279 79.7346 143.279 79.1547V72.0422H142.46C141.68 72.0422 141.29 72.403 141.056 73.8334H140.51V71.3853H147.387V73.8334H146.854C146.62 72.403 146.23 72.0422 145.437 72.0422H144.631V79.1547C144.631 79.7346 144.761 79.902 145.632 79.9277V80.3789H142.278V79.9277Z" fill="#242424"/>
<path d="M0 93.4069C0.819049 93.3813 0.987949 93.0848 1.20949 92.3118C1.89825 89.9668 3.27663 86.1532 3.8487 84.852H4.97966C5.55172 86.1532 6.8779 89.9668 7.55394 92.3118C7.77548 93.0848 7.90534 93.3813 8.76343 93.4069V93.8452H5.35694V93.4069C6.18915 93.3813 6.34533 93.2909 6.15011 92.5179C6.05886 92.1575 5.929 91.6932 5.81187 91.3071L4.08252 92.1766L2.35362 91.3071L2.2106 91.8353C1.87192 93.0978 2.00222 93.3813 2.96472 93.4069V93.8452H0V93.4069ZM2.5484 90.6498L4.08252 91.5193L5.61709 90.6498C5.10951 89.0003 4.49885 87.2483 4.10885 86.1919H4.08252C3.69252 87.2096 3.02965 89.0521 2.5484 90.6498Z" fill="#242424"/>
<path d="M10.2693 93.3685C11.1405 93.3815 11.2708 93.2141 11.2708 92.6342V86.1147C11.2708 85.5348 11.1405 85.393 10.2693 85.38V84.9292C10.9716 84.8518 12.5317 84.7487 13.7148 84.7487C16.0812 84.7487 17.1213 85.6117 17.1213 87.0681C17.1213 88.1502 16.1724 88.8071 15.3012 89.0262C16.3023 89.1679 17.6026 89.8509 17.6026 91.2943C17.6026 92.9307 16.5492 93.9484 13.767 93.9484C12.4536 93.9484 10.9458 93.8967 10.2693 93.8193V93.3685ZM12.6229 85.8439V88.8845H13.6758C15.1059 88.8845 15.717 88.0341 15.717 87.1325C15.717 86.2434 15.2753 85.38 13.7929 85.38C12.7791 85.38 12.6229 85.4448 12.6229 85.8439ZM12.6229 89.5418V92.8533C12.6229 93.2398 12.805 93.3172 13.8969 93.3172C15.6262 93.3172 16.1724 92.3503 16.1724 91.3456C16.1724 90.4179 15.6131 89.5418 14.0008 89.5418H12.6229Z" fill="#242424"/>
<path d="M19.538 93.3685C20.4092 93.3815 20.5395 93.2141 20.5395 92.6342V86.1147C20.5395 85.5348 20.4092 85.393 19.538 85.38V84.9292C20.2403 84.8518 21.8003 84.7487 22.9835 84.7487C25.3498 84.7487 26.39 85.6117 26.39 87.0681C26.39 88.1502 25.4411 88.8071 24.5698 89.0262C25.5709 89.1679 26.8712 89.8509 26.8712 91.2943C26.8712 92.9307 25.8179 93.9484 23.0357 93.9484C21.7222 93.9484 20.2144 93.8967 19.538 93.8193V93.3685ZM21.8916 85.8439V88.8845H22.9445C24.3746 88.8845 24.9857 88.0341 24.9857 87.1325C24.9857 86.2434 24.5439 85.38 23.0616 85.38C22.0478 85.38 21.8916 85.4448 21.8916 85.8439ZM21.8916 89.5418V92.8533C21.8916 93.2398 22.0736 93.3172 23.1656 93.3172C24.8949 93.3172 25.4411 92.3503 25.4411 91.3456C25.4411 90.4179 24.8817 89.5418 23.2695 89.5418H21.8916Z" fill="#242424"/>
<path d="M38.3352 93.1881C38.3352 92.8533 38.4782 92.6598 38.9073 92.119C40.5454 90.0701 42.4305 87.519 43.3539 85.5474H40.8314C39.7781 85.5474 39.4271 85.8052 39.0634 87.1711H38.5173L38.673 84.8518H44.7187V85.2513C44.7075 85.6844 44.5916 86.1086 44.3809 86.4882C43.6531 88.0085 41.7158 90.7657 39.739 93.1494H42.4958C43.471 93.1494 43.861 92.8915 44.2769 91.513H44.8227L44.6147 93.8454H38.3352V93.1881Z" fill="#242424"/>
<path d="M46.7068 93.3941C47.5908 93.3685 47.7079 93.2011 47.7079 92.6211V86.076C47.7079 85.4961 47.5908 85.3287 46.7068 85.3026V84.8518H50.0611V85.3026C49.1771 85.3287 49.0604 85.4961 49.0604 86.076V92.6211C49.0604 93.2011 49.1771 93.3685 50.0611 93.3941V93.8454H46.7068V93.3941Z" fill="#242424"/>
<path d="M65.4773 93.3684C66.3485 93.3815 66.4788 93.2141 66.4788 92.6341V86.1146C66.4788 85.5347 66.3485 85.393 65.4773 85.3804V84.9291C66.6349 84.809 67.798 84.7488 68.9619 84.7487C71.9915 84.7487 73.4603 86.3464 73.4603 89.3744C73.4603 92.3889 71.9915 93.9484 68.9619 93.9484C67.6484 93.9484 66.1538 93.8966 65.4773 93.8192V93.3684ZM67.8309 92.8145C67.8309 93.2267 67.9871 93.3171 69.0141 93.3171C71.1984 93.3171 72.0306 91.5003 72.0306 89.3744C72.0306 87.2485 71.2506 85.3804 69.0141 85.3804C67.9871 85.3804 67.8309 85.4447 67.8309 85.8438V92.8145Z" fill="#242424"/>
<path d="M75.4352 93.3941C76.3192 93.3685 76.4363 93.2011 76.4363 92.6211V86.076C76.4363 85.4961 76.3192 85.3287 75.4352 85.3026V84.8518H78.7895V85.3026C77.9055 85.3287 77.7888 85.4961 77.7888 86.076V92.6211C77.7888 93.2011 77.9055 93.3685 78.7895 93.3941V93.8454H75.4352V93.3941Z" fill="#242424"/>
<path d="M84.4045 93.3941C85.2754 93.3685 85.4056 93.2011 85.4056 92.6211V86.166C85.4056 85.5861 85.2754 85.3287 84.4045 85.3026V84.8518H86.3809C88.0703 86.9453 89.596 89.1636 90.9446 91.4873V86.1147C90.9446 85.5348 90.7753 85.3287 89.8913 85.3026V84.8518H92.6867V85.3026C91.8677 85.3287 91.7374 85.4961 91.7374 86.076V93.8454H90.8271C89.4409 91.3986 87.8948 89.0442 86.1988 86.7973V92.5825C86.1988 93.1624 86.3677 93.3685 87.2385 93.3941V93.8454H84.4045V93.3941Z" fill="#242424"/>
<path d="M98.4961 94C95.8828 94 94.5176 92.1314 94.5176 89.3486C94.5176 86.5654 95.8828 84.6968 98.4961 84.6968C101.109 84.6968 102.475 86.5654 102.475 89.3486C102.475 92.1314 101.109 94 98.4961 94ZM98.4961 85.3285C96.6369 85.3285 95.9477 87.3901 95.9477 89.3486C95.9477 91.3067 96.6369 93.3683 98.4961 93.3683C100.356 93.3683 101.045 91.3067 101.045 89.3486C101.045 87.3901 100.356 85.3285 98.4961 85.3285Z" fill="#242424"/>
<path d="M106.829 84.8517V85.303C106.023 85.3286 105.802 85.4316 106.01 86.179C106.582 88.2405 107.505 90.9977 108.064 92.4663H108.09C108.584 91.1781 109.442 88.7562 109.923 86.978C110.313 85.5477 110.183 85.3416 109.182 85.303V84.8517H112.121V85.303C111.314 85.3286 111.171 85.6251 110.95 86.3981C110.261 88.7431 108.896 92.5567 108.324 93.8453H107.193C106.621 92.5567 105.295 88.7431 104.619 86.3981C104.397 85.6251 104.28 85.3286 103.435 85.303V84.8517H106.829Z" fill="#242424"/>
<path d="M128.357 92.4021C128.008 92.8763 127.555 93.2663 127.033 93.5429C126.511 93.8196 125.932 93.9757 125.34 93.9998C122.701 93.9998 121.453 92.1317 121.453 89.3358C121.453 86.5912 122.935 84.6971 125.47 84.6971C127.239 84.6971 128.526 85.7022 128.526 86.7843C128.535 86.9215 128.514 87.059 128.464 87.1872C128.413 87.3153 128.335 87.4309 128.234 87.5257C128.134 87.6205 128.014 87.6921 127.882 87.7355C127.75 87.7789 127.61 87.793 127.473 87.7768C127.317 86.1791 126.588 85.3283 125.484 85.3283C123.65 85.3283 122.883 87.2999 122.883 89.271C122.883 91.3587 123.767 93.0725 125.535 93.0725C126.461 93.0616 127.346 92.6967 128.006 92.0543L128.357 92.4021Z" fill="#242424"/>
<path d="M130.266 93.3941C131.137 93.3685 131.267 93.2011 131.267 92.6211V86.076C131.267 85.4961 131.137 85.3287 130.266 85.3026V84.8518H136.767V87.042H136.234C135.987 85.7534 135.597 85.5348 134.648 85.5348H132.62V88.9106H134.193C134.882 88.9106 135.012 88.6528 135.116 87.9181H135.584V90.5339H135.116C135.012 89.7992 134.882 89.5418 134.193 89.5418H132.62V92.7242C132.62 93.0333 132.762 93.1624 133.074 93.1624H134.921C135.882 93.1624 136.26 92.8659 136.546 91.513H137.079L136.923 93.8454H130.266V93.3941Z" fill="#242424"/>
<path d="M139.054 93.3941C139.925 93.3685 140.055 93.2011 140.055 92.6211V86.076C140.055 85.4961 139.925 85.3287 139.054 85.3026V84.8518H142.408V85.3026C141.537 85.3287 141.407 85.4961 141.407 86.076V92.6468C141.407 93.0076 141.55 93.1624 141.888 93.1624H142.889C143.851 93.1624 144.241 92.8659 144.553 91.2295H145.113L144.943 93.8454H139.054V93.3941Z" fill="#242424"/>
<path d="M146.88 93.3941C147.75 93.3685 147.881 93.2011 147.881 92.6211V86.076C147.881 85.4961 147.75 85.3287 146.88 85.3026V84.8518H150.234V85.3026C149.363 85.3287 149.233 85.4961 149.233 86.076V92.6468C149.233 93.0076 149.376 93.1624 149.713 93.1624H150.715C151.677 93.1624 152.067 92.8659 152.379 91.2295H152.938L152.769 93.8454H146.88V93.3941Z" fill="#242424"/>
<path d="M51.5942 93.4069C52.4133 93.3813 52.5822 93.0848 52.8037 92.3118C53.4925 89.9668 54.8709 86.1532 55.4429 84.852H56.5739C57.146 86.1532 58.4721 89.9668 59.1482 92.3118C59.3697 93.0848 59.4996 93.3813 60.3577 93.4069V93.8452H56.9512V93.4069C57.7834 93.3813 57.9396 93.2909 57.7443 92.5179C57.6531 92.1575 57.5232 91.6932 57.4061 91.3071L55.6768 92.1766L53.9478 91.3071L53.8048 91.8353C53.4662 93.0978 53.5965 93.3813 54.559 93.4069V93.8452H51.5942V93.4069ZM54.1426 90.6498L55.6768 91.5193L57.2113 90.6498C56.7038 89.0003 56.0931 87.2483 55.7031 86.1919H55.6768C55.2868 87.2096 54.6239 89.0521 54.1426 90.6498Z" fill="#242424"/>
<path d="M28.0787 93.4069C28.8978 93.3813 29.0667 93.0848 29.2882 92.3118C29.977 89.9668 31.3554 86.1532 31.9274 84.852H33.0584C33.6305 86.1532 34.9566 89.9668 35.6327 92.3118C35.8542 93.0848 35.9841 93.3813 36.8422 93.4069V93.8452H33.4357V93.4069C34.2679 93.3813 34.4241 93.2909 34.2288 92.5179C34.1376 92.1575 34.0077 91.6932 33.8906 91.3071L32.1613 92.1766L30.4324 91.3071L30.2893 91.8353C29.9507 93.0978 30.081 93.3813 31.0435 93.4069V93.8452H28.0787V93.4069ZM30.6271 90.6498L32.1613 91.5193L33.6958 90.6498C33.1883 89.0003 32.5776 87.2483 32.1876 86.1919H32.1613C31.7713 87.2096 31.1084 89.0521 30.6271 90.6498Z" fill="#242424"/>
<path d="M111.729 93.4069C112.548 93.3813 112.717 93.0848 112.938 92.3118C113.627 89.9668 115.005 86.1532 115.577 84.852H116.708C117.28 86.1532 118.607 89.9668 119.283 92.3118C119.504 93.0848 119.634 93.3813 120.492 93.4069V93.8452H117.086V93.4069C117.918 93.3813 118.074 93.2909 117.879 92.5179C117.788 92.1575 117.658 91.6932 117.541 91.3071L115.811 92.1766L114.082 91.3071L113.939 91.8353C113.601 93.0978 113.731 93.3813 114.693 93.4069V93.8452H111.729V93.4069ZM114.277 90.6498L115.811 91.5193L117.346 90.6498C116.838 89.0003 116.228 87.2483 115.838 86.1919H115.811C115.421 87.2096 114.758 89.0521 114.277 90.6498Z" fill="#242424"/>
<path d="M154.237 93.4069C155.056 93.3813 155.225 93.0848 155.446 92.3118C156.135 89.9668 157.513 86.1532 158.085 84.852H159.216C159.788 86.1532 161.114 89.9668 161.791 92.3118C162.012 93.0848 162.142 93.3813 163 93.4069V93.8452H159.594V93.4069C160.426 93.3813 160.582 93.2909 160.387 92.5179C160.295 92.1575 160.166 91.6932 160.048 91.3071L158.319 92.1766L156.59 91.3071L156.447 91.8353C156.108 93.0978 156.239 93.3813 157.201 93.4069V93.8452H154.237V93.4069ZM156.785 90.6498L158.319 91.5193L159.854 90.6498C159.346 89.0003 158.735 87.2483 158.345 86.1919H158.319C157.929 87.2096 157.266 89.0521 156.785 90.6498Z" fill="#242424"/>
<path d="M97.5803 5.54466C97.0831 5.43488 96.565 5.46163 96.0819 5.62205C95.5988 5.78247 95.1691 6.07047 94.8389 6.45502C94.5692 6.76336 94.4 7.14536 94.3535 7.55079C94.307 7.95622 94.3854 8.36612 94.5783 8.72658C94.7307 8.96065 94.9389 9.15398 95.1845 9.28953C95.4301 9.42509 95.7055 9.49871 95.9866 9.50391C96.0309 9.50391 96.0752 9.50174 96.119 9.49739C96.375 9.47766 96.6133 9.36087 96.7845 9.17133C96.915 8.9883 97.0175 8.78715 97.0886 8.57442C97.2181 8.20974 97.4038 7.86716 97.6391 7.55885C97.968 7.15274 98.4279 6.87131 98.9416 6.76195L99.6545 6.60892L99.061 6.18852C98.619 5.87238 98.1143 5.65292 97.5803 5.54466ZM97.1368 7.1554C96.8593 7.51381 96.6402 7.91313 96.4875 8.33879C96.4356 8.48456 96.3696 8.62505 96.2906 8.75832C96.227 8.8193 96.1433 8.85544 96.055 8.86005C95.8747 8.86726 95.6955 8.82875 95.5343 8.74819C95.3732 8.66763 95.2355 8.54766 95.1342 8.39964C95.01 8.15573 94.9619 7.88074 94.9959 7.60963C95.0298 7.33853 95.1444 7.08357 95.325 6.87716C95.5228 6.63974 95.7714 6.44888 96.0528 6.31842C96.3343 6.18796 96.6414 6.12116 96.9521 6.12287C97.121 6.1232 97.2894 6.14009 97.4549 6.1733C97.6789 6.21745 97.8972 6.28673 98.1055 6.37981C97.7304 6.56688 97.4002 6.83133 97.1368 7.1554Z" fill="#242424"/>
<path d="M100.649 34.335C100.831 34.0937 100.933 33.8022 100.941 33.5008L101.129 27.4478H101.125C101.132 26.6057 100.609 25.8218 99.6155 25.2097C98.8482 24.7488 98.0336 24.37 97.1855 24.0798V20.8844H91.4338L91.8325 20.2244L92.0352 20.3601L94.5534 16.5448C94.5925 16.5042 94.6279 16.4603 94.6591 16.4135C94.8032 16.1626 94.8451 15.8666 94.7762 15.5861C94.8384 15.5162 94.9152 15.4605 95.0012 15.4228C95.0872 15.3851 95.1805 15.3664 95.2746 15.3679L95.601 15.3618C97.4132 15.3322 99.669 15.2948 101.333 13.7915C103.004 12.2816 103.541 9.73748 102.7 7.31028C102.338 6.29692 101.717 5.39338 100.899 4.68707C100.081 3.98076 99.0934 3.49557 98.0309 3.27842C97.1329 3.08804 96.1997 3.14116 95.3296 3.43221C94.4595 3.72325 93.6847 4.24145 93.0868 4.93221C92.4889 5.60485 92.1181 6.44584 92.0262 7.33758C91.9344 8.22933 92.126 9.12723 92.5744 9.90572C92.9672 10.5352 93.528 11.0448 94.1947 11.3784C94.8614 11.712 95.6081 11.8565 96.3524 11.796C97.2117 11.7181 98.0062 11.3106 98.5666 10.6604C98.7787 10.4042 98.9553 10.121 99.0917 9.81833C99.1391 9.71486 99.1785 9.60705 99.2171 9.49836C99.2626 9.34681 99.329 9.20225 99.4146 9.06883C99.4383 9.03709 99.5005 8.95405 99.6953 9.061C100.155 9.31576 100.173 9.91746 100.037 10.3948C99.4808 12.3425 97.3935 12.3794 95.5562 12.412L95.2162 12.4181C94.6311 12.4008 94.0512 12.5323 93.5318 12.8C93.0125 13.0678 92.5709 13.4628 92.2493 13.9476C92.08 13.9673 91.9168 14.0227 91.7709 14.1101C91.625 14.1976 91.4997 14.315 91.4035 14.4545C90.7797 14.0836 90.0887 13.6798 89.357 13.2641L90.6007 9.07362L90.53 8.95362C88.8133 6.32479 86.6661 3.99812 84.1768 2.06939C83.2932 1.36619 82.3711 0.711786 81.4148 0.109125L81.2415 0L81.0682 0.109125C78.2086 1.91512 75.6618 4.16663 73.5261 6.77684C71.9862 6.42928 70.4055 6.29251 68.8281 6.37035C67.2176 6.44643 66.1398 6.86467 65.6168 7.61026L65.616 7.60982C64.6609 8.72956 63.7647 9.89724 62.9307 11.1082L62.9294 11.1074C62.5227 11.6995 62.9285 12.979 62.946 13.0333C63.1745 13.6807 63.5525 14.2662 64.0498 14.7432C64.6958 15.3713 65.3785 15.9614 66.0941 16.5104C66.256 16.6395 66.4174 16.7678 66.5771 16.8969C67.6972 17.7119 68.5515 18.8345 69.0343 20.1258L69.147 20.4457L69.4629 20.3157C70.6316 19.8353 72.6996 17.5021 72.7873 17.4029L72.9137 17.2595L72.8474 17.0812C72.1407 15.1749 70.3714 13.7898 68.811 12.5681C68.5201 12.3403 68.242 12.1216 67.9805 11.9082C69.387 11.3521 70.7549 11.2673 72.6329 11.6047L74.8962 19.2297H75.742C75.2735 19.8681 74.7037 20.4269 74.0547 20.8844H65.2975V24.0798C64.4493 24.3699 63.6348 24.7487 62.8675 25.2097C61.8734 25.8223 61.3505 26.6057 61.3575 27.4478H61.354L61.5422 33.5008C61.55 33.8021 61.6519 34.0936 61.8339 34.335C61.328 34.6656 60.7807 34.9292 60.2059 35.1193L59.9089 35.2185L61.293 39.7224L61.6207 39.5911C61.9563 39.4564 64.914 38.2291 65.3848 36.6931C65.7945 35.355 64.8188 32.0948 64.5104 31.1275H64.5096C64.5078 31.1197 64.5043 31.1097 64.5017 31.1018H64.5021L64.492 31.071C64.4898 31.0653 64.4889 31.061 64.4867 31.0544L64.485 31.0501H64.4854L64.485 31.0492L64.4639 30.9831L64.4569 30.9853C64.3595 30.7396 64.2133 30.5158 64.027 30.3271C64.4148 29.9445 64.843 29.6041 65.304 29.312C65.3703 37.2153 66.9264 43.1987 69.9389 47.0914C70.3345 47.6007 70.7642 48.0831 71.2251 48.5352L68.4894 53.124H71.9411L73.5967 50.3859C75.9093 51.7377 78.5573 52.4215 81.2415 52.3601C86.0347 52.3601 89.8373 50.5872 92.5437 47.0914C95.5562 43.1987 97.1123 37.2152 97.179 29.3124C97.6398 29.6043 98.0677 29.9445 98.4551 30.3271C98.2698 30.5151 98.1243 30.7378 98.027 30.9823L98.0199 30.9801L97.9976 31.0492L97.9971 31.0501L97.9958 31.0544L98.3038 31.1514L97.9958 31.0553L97.9726 31.127V31.1275C97.6642 32.0957 96.6889 35.3576 97.0982 36.6931C97.569 38.2291 100.527 39.4564 100.862 39.5911L101.19 39.7224L102.574 35.2185L102.277 35.1193C101.702 34.9291 101.155 34.6655 100.649 34.335ZM80.2904 20.8844C80.2961 20.8744 80.3022 20.8644 80.3075 20.854C80.361 20.7518 80.6927 19.9301 80.9555 19.2297H81.5271C81.7903 19.931 82.1215 20.7527 82.1751 20.854C82.1803 20.8644 82.1869 20.874 82.1922 20.8844H80.2904ZM82.9331 20.8844C82.8708 20.777 82.8068 20.6692 82.7493 20.5601C82.7129 20.4862 82.4611 19.8697 82.2172 19.2297H85.9562C85.9851 19.2758 86.0128 19.3237 86.043 19.3689C86.4224 19.932 86.8768 20.4418 87.3938 20.8844H82.9331ZM87.997 17.8468C88.4669 18.1207 88.9073 18.3829 89.307 18.6254L88.0948 20.6309C87.5811 20.2272 87.1255 19.7558 86.7406 19.2297H87.5868L87.997 17.8468ZM89.8571 18.9624C89.8878 18.9806 89.9189 19.0002 89.9488 19.0185C90.0133 19.058 90.0742 19.0963 90.1357 19.1345C90.3984 19.298 90.6362 19.448 90.8415 19.5789L90.8801 19.6028C91.0367 19.7036 91.1762 19.7927 91.2938 19.8693L90.6801 20.8844H88.6945L89.8571 18.9624ZM95.2281 13.0585L95.5632 13.0524C97.4237 13.0198 99.9721 12.9742 100.659 10.5691C100.863 9.85573 100.799 8.93797 100.01 8.50192C99.8354 8.38464 99.6216 8.33879 99.4134 8.37394C99.2052 8.4091 99.0188 8.52254 98.893 8.6906C98.7689 8.87341 98.6728 9.07338 98.6078 9.28402C98.5758 9.37445 98.5437 9.46532 98.5038 9.55053C98.3921 9.80097 98.2469 10.0354 98.0721 10.2474C97.6201 10.7703 96.9796 11.0972 96.2875 11.1582C95.6655 11.2091 95.0413 11.0885 94.4841 10.8097C93.9269 10.531 93.4583 10.105 93.1302 9.57879C92.7505 8.91675 92.5891 8.15369 92.6685 7.39628C92.7478 6.63887 93.064 5.92495 93.5729 5.35434C94.0972 4.74945 94.7763 4.29579 95.5388 4.0411C96.3014 3.78641 97.1191 3.74012 97.9059 3.90708C98.8576 4.10148 99.7427 4.536 100.475 5.16858C101.208 5.80117 101.764 6.61043 102.088 7.51809C102.845 9.70356 102.378 11.9803 100.896 13.3181C99.4141 14.6584 97.2935 14.6936 95.5896 14.7219L95.2667 14.7271C94.991 14.7259 94.722 14.8114 94.4985 14.9714C94.2951 14.6881 94.0339 14.4503 93.7317 14.2736C93.508 14.1415 93.2654 14.0438 93.0122 13.9836C93.293 13.681 93.6362 13.4418 94.0186 13.2822C94.4009 13.1226 94.8134 13.0463 95.2281 13.0585ZM92.4621 14.5606C92.7924 14.5643 93.1157 14.6549 93.399 14.8231C93.6824 14.9913 93.9156 15.2311 94.0747 15.5179C94.1244 15.6033 94.1529 15.6991 94.1581 15.7976C94.1633 15.896 94.1449 15.9943 94.1046 16.0843C94.1015 16.0887 94.0967 16.0926 94.0936 16.097C93.7185 15.8605 92.9543 15.3844 91.9585 14.7862C92.0203 14.714 92.0976 14.6563 92.1847 14.6173C92.2718 14.5782 92.3665 14.5589 92.4621 14.5606ZM89.1701 13.8958C91.2925 15.1066 93.0688 16.2109 93.7277 16.6252L91.8527 19.4667C91.8325 19.4532 91.8089 19.438 91.786 19.4232C91.7751 19.4158 91.7641 19.4089 91.7523 19.401C91.7378 19.3915 91.7215 19.381 91.7062 19.371C91.4706 19.218 91.1398 19.0054 90.7266 18.7463C90.713 18.7376 90.6998 18.7293 90.6862 18.7211C90.6301 18.6854 90.573 18.6502 90.5143 18.6133C90.4621 18.5811 90.4081 18.5481 90.3541 18.5146C90.3186 18.4924 90.2853 18.4716 90.2493 18.4489C90.1422 18.3833 90.0318 18.3156 89.9181 18.2459L89.9036 18.2372L89.6395 18.0751L89.639 18.0759C89.1973 17.8081 88.7103 17.5177 88.1852 17.2134L88.6625 15.6053L89.1701 13.8958ZM89.9005 9.16317L88.2484 14.7292L88.2019 14.8849C86.9095 14.7214 85.6052 14.6058 84.2979 14.5336V2.99888C86.46 4.77064 88.3477 6.84758 89.9005 9.16317ZM81.2415 0.759495C82.0619 1.28423 82.8708 1.86115 83.6517 2.47545V14.5027C82.0382 14.4323 80.426 14.4319 78.8309 14.5019V2.47545C79.6113 1.86159 80.4202 1.28467 81.2415 0.759495ZM68.41 13.0707C69.8529 14.2002 71.4813 15.4753 72.171 17.1256C71.3781 18.0339 70.4865 18.8529 69.5125 19.5676C68.9644 18.311 68.0931 17.219 66.9856 16.4009C66.825 16.2709 66.663 16.141 66.4995 16.0113C65.8039 15.4778 65.1402 14.9047 64.5118 14.2949C64.0854 13.8889 63.7603 13.3901 63.562 12.8381C63.4049 12.352 63.3299 11.6625 63.4637 11.4673L63.4677 11.4621C63.5242 11.3799 64.3393 10.2009 65.2821 9.01753C65.2821 9.02232 65.2839 9.02666 65.2839 9.03188C65.2952 9.13046 65.3116 9.2284 65.333 9.32533C65.3369 9.34489 65.3431 9.36446 65.3475 9.38402C65.3663 9.46271 65.3874 9.54097 65.412 9.61923C65.4221 9.65053 65.433 9.68139 65.4435 9.7127C65.4672 9.78182 65.4933 9.85064 65.5216 9.91919C65.5339 9.94962 65.5458 9.98006 65.5594 10.0101C65.5949 10.0914 65.6331 10.1726 65.6743 10.2526C65.6822 10.2674 65.6883 10.2818 65.6958 10.2966C65.7454 10.3909 65.7989 10.4839 65.855 10.5761C65.8704 10.6009 65.8871 10.6257 65.9024 10.65C65.9454 10.7174 65.9893 10.7839 66.0349 10.8496C66.056 10.8787 66.0766 10.9078 66.0981 10.9369C66.1437 10.9995 66.1907 11.0604 66.2385 11.1208C66.2591 11.1461 66.2784 11.1713 66.299 11.196C66.3675 11.2795 66.4376 11.3608 66.51 11.4386C66.715 11.6558 66.9312 11.8622 67.158 12.0569L67.3172 12.1955L67.3199 12.1942C67.6559 12.4785 68.0226 12.7672 68.41 13.0707ZM67.4322 11.4373C67.3922 11.4008 67.3501 11.3639 67.3133 11.3295C67.2852 11.3034 67.2558 11.2765 67.2295 11.2508C67.1413 11.1661 67.0588 11.0834 66.9856 11.0048C66.1827 10.1392 65.5716 8.82928 66.1292 7.99718C66.5175 7.41766 67.4616 7.07639 68.8588 7.0103C69.1444 6.99683 69.426 6.98987 69.7055 6.98987C70.8407 6.98992 71.9728 7.10603 73.0839 7.33636C72.6776 7.85475 72.3001 8.39464 71.953 8.95362L71.8819 9.07362L72.4285 10.9161C70.7491 10.5665 69.0013 10.7489 67.4322 11.4373ZM72.582 9.16317C74.1341 6.84702 76.0219 4.76997 78.1847 2.99888V14.5345C76.8659 14.608 75.5621 14.7271 74.2842 14.8971L73.3458 11.7364H73.3463L72.582 9.16317ZM75.3801 18.5889L74.4689 15.5201C78.9663 14.9489 83.5187 14.945 88.0172 15.5083L87.4219 17.5142L87.4223 17.5147L87.1029 18.5889H75.3801ZM76.4395 19.3689C76.4693 19.3237 76.4974 19.2758 76.5268 19.2297H80.2654C80.0215 19.8688 79.7697 20.4853 79.7346 20.557C79.6758 20.6688 79.6122 20.7766 79.5494 20.8844H75.0888C75.6057 20.4417 76.06 19.9319 76.4395 19.3689ZM63.3716 30.6058C63.6014 30.7655 63.7761 30.9913 63.8721 31.2527L63.8901 31.3092C63.9336 31.4608 63.9267 31.6222 63.8704 31.7696C63.5781 32.6217 63.0542 33.3774 62.3564 33.9533C62.2518 33.8173 62.1928 33.6522 62.188 33.4812L62.0581 29.2859C62.4158 29.7977 62.8602 30.2442 63.3716 30.6058ZM64.7662 36.5075C64.4788 37.4444 62.6837 38.4182 61.7032 38.8582L60.7082 35.621C61.3611 35.3809 61.9755 35.0485 62.5323 34.6341C63.2709 34.0852 63.8614 33.3643 64.2516 32.5352C64.6776 34.1016 64.9891 35.778 64.7662 36.5075ZM63.5264 29.9176C62.7977 29.3647 62.2723 28.59 62.0309 27.7125C61.8497 26.8052 62.5714 26.1466 63.2088 25.7536C63.8703 25.3558 64.5699 25.0239 65.2975 24.7628V28.5677C64.6494 28.938 64.0539 29.3919 63.5264 29.9176ZM71.5748 52.4836H69.6226L71.706 48.9878C72.1314 49.3667 72.5819 49.717 73.0545 50.0364L71.5748 52.4836ZM73.6683 49.6651C73.0212 49.2495 72.4149 48.7747 71.8573 48.247L71.5629 47.9692L71.5555 47.9805C68.2995 44.7181 65.9437 38.8729 65.9437 28.7855V21.5252H80.9182V51.7167C78.4607 51.7193 76.0471 51.0717 73.9267 49.8408L73.931 49.8329L73.6683 49.6651ZM81.5648 51.7167V43.0522L83.2727 30.7384L84.9674 42.9517C84.9731 42.9934 84.9939 43.0316 85.0259 43.0592C85.0579 43.0868 85.0989 43.1021 85.1413 43.1021C85.1837 43.1021 85.2247 43.0868 85.2567 43.0592C85.2887 43.0316 85.3095 42.9934 85.3152 42.9517L87.0099 30.7384L88.7042 42.9517C88.7099 42.9934 88.7307 43.0315 88.7626 43.0592C88.7945 43.0868 88.8355 43.102 88.8779 43.102C88.9203 43.102 88.9613 43.0868 88.9932 43.0592C89.0252 43.0315 89.0459 42.9934 89.0516 42.9517L90.7463 30.7384L92.441 42.9517C92.4467 42.9934 92.4675 43.0316 92.4994 43.0592C92.5314 43.0868 92.5723 43.1021 92.6147 43.1021C92.6572 43.1021 92.6981 43.0868 92.7301 43.0592C92.762 43.0316 92.7827 42.9934 92.7885 42.9517L94.4832 30.7384L95.5773 38.6295C93.2386 48.9965 87.0389 51.6189 81.5648 51.7167ZM96.5393 28.7855C96.5588 31.424 96.3643 34.0598 95.9576 36.6675L94.6569 27.2882C94.6511 27.2466 94.6303 27.2084 94.5983 27.1808C94.5664 27.1531 94.5254 27.1379 94.4829 27.1379C94.4405 27.1379 94.3995 27.1531 94.3675 27.1808C94.3356 27.2084 94.3148 27.2466 94.309 27.2882L92.6143 39.5016L90.9201 27.2882C90.9143 27.2466 90.8935 27.2084 90.8615 27.1808C90.8295 27.1531 90.7885 27.1379 90.7461 27.1379C90.7037 27.1379 90.6627 27.1531 90.6307 27.1808C90.5987 27.2084 90.5779 27.2466 90.5722 27.2882L88.8779 39.5012L87.1837 27.2882C87.1779 27.2466 87.1571 27.2084 87.1251 27.1808C87.0931 27.1531 87.0521 27.1379 87.0097 27.1379C86.9673 27.1379 86.9263 27.1531 86.8943 27.1808C86.8623 27.2084 86.8415 27.2466 86.8358 27.2882L85.1415 39.5016L83.4468 27.2882C83.4411 27.2466 83.4203 27.2084 83.3883 27.1808C83.3563 27.1531 83.3153 27.1379 83.2729 27.1379C83.2305 27.1379 83.1895 27.1531 83.1575 27.1808C83.1255 27.2084 83.1047 27.2466 83.0989 27.2882L81.5648 38.3504V21.5252H96.5393V28.7855ZM97.1855 28.5677V24.7628C97.9129 25.024 98.6123 25.3559 99.2737 25.7536C99.9112 26.1466 100.633 26.8052 100.452 27.7125C100.21 28.5901 99.6847 29.3648 98.9557 29.9176C98.4285 29.392 97.8332 28.9381 97.1855 28.5677ZM99.111 30.6058C99.6224 30.2442 100.067 29.7977 100.424 29.2859L100.295 33.4812C100.29 33.6522 100.231 33.8174 100.126 33.9533C99.4227 33.3712 98.8958 32.6074 98.6039 31.7466C98.554 31.6052 98.55 31.452 98.5924 31.3083L98.6104 31.2527C98.7065 30.9913 98.8812 30.7655 99.111 30.6058ZM100.779 38.8582C99.7993 38.4182 98.0042 37.4444 97.7168 36.5075C97.4939 35.7797 97.8054 34.1038 98.231 32.5369C98.6215 33.3653 99.212 34.0856 99.9502 34.6341C100.507 35.0484 101.122 35.3808 101.774 35.621L100.779 38.8582Z" fill="#242424"/>
<path d="M75.2658 43.0709L75.7769 43.1122L75.408 42.1549C75.3139 41.9115 75.2349 41.6626 75.1715 41.4097C75.0496 40.9336 74.9706 34.9137 74.9706 34.0659V26.6609H75.4352C76.1459 26.6609 76.5977 26.7626 76.9259 28.7677L76.9702 29.0368H78.592V23.7994H68.2388V29.0368H69.8589L69.9032 28.7677C70.2313 26.7626 70.6836 26.6609 71.3939 26.6609H71.8602V34.2164C71.8585 34.299 71.855 34.532 71.8501 34.8654C71.7905 38.9369 71.7277 41.1375 71.665 41.4045C71.6001 41.6593 71.5196 41.9101 71.4242 42.1553L71.0552 43.1122L71.5663 43.0709C71.622 43.0665 71.9857 43.0361 72.3244 42.9774C72.4793 43.4744 72.7997 43.9046 73.2333 44.1977L73.4167 44.3238L73.6005 44.1977C74.0339 43.9046 74.3542 43.4746 74.5091 42.9778C74.8478 43.0361 75.2101 43.0665 75.2658 43.0709ZM73.8866 42.6026C73.8892 42.6392 73.8923 42.6757 73.8923 42.7122C73.8438 43.0325 73.6737 43.3224 73.4167 43.5226C73.16 43.3223 72.99 43.0324 72.9416 42.7122C72.9416 42.6757 72.9434 42.6392 72.9456 42.6026L72.978 42.1262L72.5213 42.277C72.3609 42.322 72.1973 42.3546 72.0317 42.3744C72.1347 42.1084 72.2217 41.8367 72.2923 41.5606C72.3713 41.2454 72.4323 39.246 72.4963 34.875C72.5012 34.5437 72.5047 34.3133 72.5064 34.2238V26.0201H71.3939C70.1857 26.0201 69.6409 26.6265 69.3118 28.396H68.885V24.4402H77.9458V28.396H77.5172C77.1882 26.6265 76.6438 26.0201 75.4352 26.0201H74.3244V34.0659C74.3244 34.1325 74.3823 40.9349 74.5446 41.5658C74.6133 41.8402 74.6987 42.1102 74.8004 42.3744C74.6347 42.3544 74.4709 42.3217 74.3103 42.2766L73.8541 42.127L73.8866 42.6026Z" fill="#242424"/>
<path d="M59.5706 56.6993C59.4688 56.7015 59.3719 56.7432 59.3008 56.8154C59.3801 56.8624 59.4448 56.9301 59.4879 57.011C59.531 57.092 59.5508 57.1831 59.5452 57.2745C59.5452 57.7184 59.031 58.5461 58.7612 58.9291C58.7127 58.3409 58.6276 57.7562 58.5063 57.1784C58.4252 56.8206 58.2879 56.7602 58.0483 56.7602C57.9217 56.7605 57.7954 56.7739 57.6715 56.8002L57.6465 56.9615H57.7329C57.9005 56.9615 57.9619 57.0523 58.0176 57.3049C58.177 57.983 58.2928 58.6704 58.3642 59.363H58.7204C59.1381 58.8487 59.9676 57.7892 59.9676 57.1332C59.9734 57.0782 59.9675 57.0227 59.9501 56.9701C59.9328 56.9176 59.9044 56.8693 59.867 56.8283C59.8295 56.7874 59.7837 56.7547 59.7327 56.7325C59.6816 56.7103 59.6264 56.699 59.5706 56.6993Z" fill="#242424"/>
<path d="M61.1575 58.5813L61.3865 57.3049C61.4085 57.2035 61.4222 57.1006 61.4273 56.9971C61.4273 56.831 61.3356 56.7601 61.1167 56.7601C60.9547 56.7607 60.7931 56.774 60.6332 56.8001L60.6025 56.9619H60.7298C60.8978 56.9619 60.9588 57.0375 60.9184 57.2644L60.6894 58.5409C60.5771 59.166 60.6635 59.3982 61.0351 59.3982C61.1885 59.3965 61.3398 59.3621 61.4786 59.2973L61.5089 59.1312C61.4335 59.1475 61.3569 59.1577 61.2799 59.1617C61.0812 59.1617 61.0759 59.0252 61.1575 58.5813Z" fill="#242424"/>
<path d="M61.2898 55.6803C61.2243 55.6803 61.1604 55.6996 61.106 55.7356C61.0516 55.7716 61.0092 55.8228 60.9842 55.8827C60.9591 55.9426 60.9526 56.0085 60.9653 56.0721C60.9781 56.1357 61.0096 56.1941 61.0559 56.2399C61.1021 56.2858 61.1611 56.317 61.2252 56.3296C61.2894 56.3423 61.3559 56.3358 61.4163 56.311C61.4768 56.2862 61.5284 56.2442 61.5648 56.1902C61.6011 56.1363 61.6205 56.073 61.6205 56.0081C61.6206 55.9651 61.6121 55.9224 61.5955 55.8826C61.5789 55.8428 61.5546 55.8066 61.5238 55.7762C61.4931 55.7457 61.4566 55.7216 61.4164 55.7051C61.3763 55.6887 61.3332 55.6803 61.2898 55.6803Z" fill="#242424"/>
<path d="M63.8904 56.6993C63.7886 56.7015 63.6918 56.7432 63.6206 56.8154C63.6999 56.8624 63.7646 56.9301 63.8077 57.011C63.8508 57.092 63.8706 57.1831 63.865 57.2745C63.865 57.7184 63.3508 58.5461 63.081 58.9291C63.0325 58.3409 62.9474 57.7562 62.8262 57.1784C62.745 56.8206 62.6077 56.7602 62.3682 56.7602C62.2415 56.7605 62.1152 56.7739 61.9913 56.8002L61.9663 56.9615H62.0527C62.2208 56.9615 62.2817 57.0523 62.3375 57.3049C62.4968 57.983 62.6126 58.6704 62.684 59.363H63.0402C63.4579 58.8487 64.2875 57.7892 64.2875 57.1332C64.2933 57.0782 64.2873 57.0227 64.2699 56.9701C64.2526 56.9176 64.2242 56.8693 64.1868 56.8283C64.1493 56.7874 64.1036 56.7547 64.0525 56.7325C64.0014 56.7103 63.9462 56.699 63.8904 56.6993Z" fill="#242424"/>
<path d="M67.0607 59.141C66.8466 59.141 66.811 59.0049 66.8874 58.581L67.2028 56.7903H66.7852C66.7331 56.9306 66.6957 57.0759 66.6737 57.2237C66.6262 57.0766 66.5311 56.949 66.4031 56.8607C66.2752 56.7724 66.1214 56.7283 65.9657 56.7351C65.0953 56.7351 64.7189 57.6228 64.7189 58.425C64.7189 59.0049 65.029 59.4184 65.5691 59.4184C65.7542 59.4171 65.9351 59.3638 66.091 59.2648C66.2468 59.1658 66.3711 59.025 66.4495 58.8588C66.4374 58.9169 66.4323 58.9761 66.4342 59.0353C66.4342 59.2519 66.5509 59.3936 66.8211 59.3936C66.984 59.3938 67.1434 59.3463 67.2791 59.2571L67.3098 59.0805C67.232 59.1178 67.1471 59.1384 67.0607 59.141ZM65.7064 59.1462C65.3703 59.1462 65.2023 58.8132 65.2023 58.4145C65.2023 57.8646 65.4318 57.012 66.0372 57.012C66.3732 57.012 66.5364 57.3303 66.5364 57.7185C66.5364 58.2684 66.3175 59.1462 65.7064 59.1462Z" fill="#242424"/>
<path d="M68.8816 56.0437C68.7089 56.0547 68.5397 56.0975 68.3828 56.1698L68.2705 56.7906H67.8941L67.8585 57.0118H68.2349L67.9752 58.46C67.8537 59.1617 68.0722 59.4034 68.4999 59.4034C68.6729 59.4013 68.8426 59.3561 68.9934 59.2721L69.0395 59.0504C68.9333 59.1094 68.8149 59.1439 68.6934 59.1512C68.4543 59.1512 68.3622 58.9495 68.4438 58.5004L68.7087 57.0118H69.3549L69.3909 56.7906H68.7443L68.8816 56.0437Z" fill="#242424"/>
<path d="M72.2705 56.7296C71.3492 56.7296 70.9215 57.6278 70.9215 58.3947C70.9067 58.5236 70.9195 58.6541 70.959 58.7779C70.9984 58.9016 71.0637 59.0157 71.1506 59.1127C71.2375 59.2098 71.344 59.2876 71.4633 59.3412C71.5825 59.3948 71.7118 59.4229 71.8428 59.4237C72.0403 59.4101 72.2318 59.3505 72.4017 59.2496C72.5715 59.1488 72.7149 59.0095 72.8202 58.8433L72.739 58.7625C72.5293 58.9515 72.2586 59.0608 71.9753 59.0707C71.6239 59.0707 71.4102 58.7577 71.4102 58.339C71.4102 57.7943 71.6699 56.9565 72.2499 56.9565C72.5653 56.9565 72.7083 57.2743 72.6982 57.6478C72.7491 57.6496 72.7998 57.6411 72.8472 57.6228C72.8947 57.6045 72.9378 57.5768 72.9741 57.5414C73.0103 57.506 73.0388 57.4636 73.058 57.4168C73.0771 57.3701 73.0863 57.32 73.0852 57.2695C73.0852 56.977 72.754 56.7296 72.2705 56.7296Z" fill="#242424"/>
<path d="M75.0842 56.7397C74.9311 56.7514 74.7839 56.8033 74.6578 56.8902C74.5317 56.9771 74.4313 57.0958 74.367 57.234C74.3859 57.1632 74.3977 57.0907 74.4021 57.0175C74.4021 56.831 74.2955 56.7602 74.0559 56.7602C73.9178 56.7662 73.7802 56.7795 73.6435 56.8002L73.6133 56.9667H73.7405C73.873 56.9667 73.9392 57.0119 73.9392 57.1484C73.9356 57.2417 73.9236 57.3346 73.9033 57.4258L73.5571 59.363H74.0353L74.2797 57.9605C74.3867 57.3453 74.621 57.0727 74.8706 57.0727C75.079 57.0727 75.1553 57.2593 75.1553 57.5166C75.2571 57.513 75.3536 57.4706 75.4248 57.3983C75.4959 57.326 75.5362 57.2294 75.5374 57.1284C75.5358 57.0726 75.5225 57.0177 75.4983 56.9672C75.4742 56.9168 75.4397 56.8718 75.3971 56.8353C75.3545 56.7988 75.3047 56.7714 75.2508 56.7549C75.1969 56.7385 75.1402 56.7333 75.0842 56.7397Z" fill="#242424"/>
<path d="M79.5567 56.7296C78.9509 56.7296 78.6455 57.0983 78.6455 57.4665C78.6465 57.6303 78.6983 57.7898 78.7938 57.9234C78.8894 58.057 79.0242 58.1583 79.1799 58.2134L79.3321 58.2934C79.6129 58.4451 79.7655 58.5655 79.7655 58.7681C79.7655 59.0503 79.5414 59.1963 79.2106 59.1963C79.1302 59.204 79.0491 59.1943 78.9729 59.1679C78.8967 59.1415 78.8271 59.0991 78.7691 59.0435C78.711 58.9879 78.6658 58.9206 78.6365 58.846C78.6072 58.7714 78.5946 58.6915 78.5995 58.6116C78.5583 58.6065 78.5166 58.6098 78.4769 58.6215C78.4371 58.6332 78.4003 58.653 78.3687 58.6796C78.3371 58.7062 78.3114 58.739 78.2933 58.7759C78.2752 58.8129 78.265 58.8531 78.2634 58.8942C78.2634 59.2416 78.7416 59.4237 79.1799 59.4237C79.7958 59.4237 80.2029 59.1311 80.2029 58.6368C80.2029 58.2934 80.0095 58.1021 79.6585 57.9051L79.5058 57.8195C79.2106 57.653 79.0834 57.5521 79.0834 57.3552C79.0848 57.2985 79.0981 57.2427 79.1224 57.1913C79.1467 57.1399 79.1814 57.0941 79.2244 57.0567C79.2674 57.0192 79.3178 56.991 79.3723 56.9738C79.4269 56.9565 79.4844 56.9507 79.5414 56.9565C79.6151 56.9499 79.6893 56.96 79.7585 56.9861C79.8276 57.0122 79.8899 57.0535 79.9404 57.1071C79.991 57.1606 80.0286 57.2249 80.0503 57.295C80.072 57.3652 80.0772 57.4393 80.0656 57.5117C80.2542 57.5017 80.3867 57.4113 80.3867 57.2191C80.3867 56.9165 79.9638 56.7296 79.5567 56.7296Z" fill="#242424"/>
<path d="M82.2229 56.7296C81.3016 56.7296 80.8739 57.6278 80.8739 58.3947C80.8591 58.5236 80.8719 58.6542 80.9114 58.778C80.9509 58.9017 81.0162 59.0158 81.1032 59.1129C81.1901 59.2099 81.2967 59.2878 81.416 59.3413C81.5353 59.3949 81.6646 59.4229 81.7956 59.4237C81.993 59.4101 82.1844 59.3505 82.3541 59.2496C82.5238 59.1487 82.6671 59.0095 82.7721 58.8433L82.6914 58.7625C82.4817 58.9515 82.211 59.0608 81.9276 59.0707C81.5762 59.0707 81.3626 58.7577 81.3626 58.339C81.3626 57.7943 81.6223 56.9565 82.2023 56.9565C82.5177 56.9565 82.6607 57.2743 82.6506 57.6478C82.7015 57.6496 82.7522 57.6411 82.7996 57.6228C82.847 57.6045 82.8902 57.5768 82.9264 57.5414C82.9627 57.506 82.9912 57.4636 83.0103 57.4168C83.0294 57.3701 83.0387 57.32 83.0375 57.2695C83.0375 56.977 82.7063 56.7296 82.2229 56.7296Z" fill="#242424"/>
<path d="M85.5966 58.581L85.9125 56.7903H85.4949C85.4424 56.9305 85.4049 57.0758 85.383 57.2237C85.3355 57.0766 85.2405 56.949 85.1126 56.8607C84.9848 56.7724 84.8311 56.7283 84.6754 56.7351C83.805 56.7351 83.4286 57.6228 83.4286 58.425C83.4286 59.0049 83.7387 59.4184 84.2788 59.4184C84.4639 59.4171 84.6448 59.3638 84.8007 59.2648C84.9565 59.1658 85.0808 59.025 85.1592 58.8588C85.1471 58.9169 85.142 58.9761 85.1439 59.0353C85.1439 59.2519 85.2606 59.3936 85.5308 59.3936C85.6937 59.3938 85.8531 59.3463 85.9888 59.2571L86.0195 59.0805C85.9417 59.1178 85.8568 59.1384 85.7704 59.141C85.5563 59.141 85.5203 59.0049 85.5966 58.581ZM84.4161 59.1462C84.08 59.1462 83.912 58.8132 83.912 58.4145C83.912 57.8646 84.141 57.012 84.7469 57.012C85.0825 57.012 85.2461 57.3303 85.2461 57.7185C85.2461 58.2684 85.0268 59.1462 84.4161 59.1462Z" fill="#242424"/>
<path d="M87.5907 56.0437C87.418 56.0547 87.2488 56.0975 87.0919 56.1698L86.9796 56.7906H86.6032L86.5676 57.0118H86.9445L86.6848 58.46C86.5628 59.1617 86.7813 59.4034 87.209 59.4034C87.382 59.4013 87.5517 59.3561 87.7025 59.2721L87.7486 59.0504C87.6424 59.1095 87.5241 59.144 87.4025 59.1512C87.1634 59.1512 87.0717 58.9495 87.1533 58.5004L87.4178 57.0118H88.064L88.1 56.7906H87.4534L87.5907 56.0437Z" fill="#242424"/>
<path d="M92.0943 55.6803C91.8796 55.6589 91.6638 55.6505 91.4481 55.6551C91.1602 55.6436 90.8781 55.7376 90.6556 55.919C90.4331 56.1005 90.2857 56.3567 90.2417 56.6389L90.211 56.7902H89.8341L89.7986 57.0119H90.1754L89.7122 59.6252C89.6407 60.0139 89.488 60.1904 89.2691 60.1904C89.2025 60.1902 89.1375 60.1711 89.0815 60.1353C89.0256 60.0996 88.9813 60.0487 88.9537 59.9887C88.9076 59.9942 88.8651 60.0162 88.8342 60.0506C88.8033 60.0849 88.786 60.1292 88.7856 60.1752C88.7856 60.3317 88.969 60.4225 89.2537 60.4225C89.7376 60.4225 90.1039 60.0843 90.2259 59.4083L90.6488 57.0119H91.2191L91.2542 56.7902H90.6896L90.74 56.5024C90.7573 56.3372 90.8344 56.1838 90.9571 56.0707C91.0799 55.9576 91.2398 55.8924 91.4073 55.8873C91.7227 55.8873 91.9421 55.9072 91.8907 56.1898L91.4735 58.5409C91.3617 59.1661 91.4428 59.3983 91.8197 59.3983C91.9728 59.3967 92.1238 59.3623 92.2623 59.2974L92.293 59.1313C92.2175 59.1475 92.1408 59.1576 92.0636 59.1618C91.8605 59.1618 91.8653 59.0253 91.9465 58.5814L92.3641 56.2255C92.385 56.124 92.3969 56.0208 92.3996 55.9172C92.3996 55.756 92.3084 55.7003 92.0943 55.6803Z" fill="#242424"/>
<path d="M94.1957 56.7298C93.2336 56.7298 92.8208 57.5723 92.8208 58.3897C92.8058 58.5218 92.8196 58.6555 92.8611 58.7819C92.9027 58.9083 92.9711 59.0244 93.0618 59.1224C93.1525 59.2203 93.2633 59.2979 93.3868 59.3499C93.5102 59.4018 93.6435 59.4269 93.7776 59.4235C94.7401 59.4235 95.1525 58.5814 95.1525 57.7641C95.1675 57.6319 95.1538 57.4982 95.1122 57.3717C95.0707 57.2453 95.0022 57.1292 94.9116 57.0312C94.8209 56.9332 94.7101 56.8556 94.5866 56.8036C94.4631 56.7516 94.3298 56.7264 94.1957 56.7298ZM93.8083 59.1966C93.4473 59.1966 93.3043 58.8388 93.3043 58.4149C93.3043 57.7993 93.5184 56.9567 94.1646 56.9567C94.5265 56.9567 94.6686 57.315 94.6686 57.7388C94.6686 58.3544 94.4554 59.1966 93.8083 59.1966Z" fill="#242424"/>
<path d="M97.3097 56.7397C97.1565 56.7514 97.0093 56.8033 96.8832 56.8902C96.7571 56.9771 96.6567 57.0958 96.5924 57.234C96.6114 57.1632 96.6232 57.0907 96.6275 57.0175C96.6275 56.831 96.5209 56.7602 96.2814 56.7602C96.1433 56.7662 96.0057 56.7795 95.869 56.8002L95.8387 56.9667H95.966C96.0985 56.9667 96.1647 57.0119 96.1647 57.1484C96.1611 57.2417 96.1491 57.3346 96.1287 57.4258L95.7826 59.363H96.2608L96.5051 57.9605C96.6122 57.3453 96.8469 57.0728 97.096 57.0728C97.3044 57.0728 97.3808 57.2593 97.3808 57.5166C97.4826 57.513 97.5791 57.4706 97.6502 57.3983C97.7214 57.326 97.7617 57.2294 97.7629 57.1284C97.7613 57.0726 97.7479 57.0177 97.7238 56.9672C97.6996 56.9168 97.6651 56.8718 97.6225 56.8353C97.5799 56.7988 97.5301 56.7714 97.4763 56.7549C97.4224 56.7385 97.3657 56.7333 97.3097 56.7397Z" fill="#242424"/>
<path d="M104.672 57.012H105.318L105.354 56.7903H104.707L104.845 56.0439C104.672 56.0548 104.503 56.0976 104.346 56.1699L104.234 56.7903H103.857L103.822 57.012H104.198L103.939 58.4602C103.817 59.1614 104.035 59.4036 104.463 59.4036C104.636 59.4012 104.806 59.3561 104.957 59.2723L105.003 59.0506C104.896 59.1097 104.778 59.1442 104.656 59.1514C104.418 59.1514 104.326 58.9493 104.407 58.5006L104.672 57.012Z" fill="#242424"/>
<path d="M77.1299 56.7349C76.1981 56.7349 75.7401 57.587 75.7401 58.3943C75.7401 59.0299 76.0709 59.4186 76.6816 59.4186C76.8888 59.4104 77.0913 59.3541 77.2725 59.2542C77.4538 59.1543 77.6089 59.0136 77.7252 58.8434L77.6441 58.7626C77.406 58.9616 77.1054 59.0723 76.7939 59.0756C76.7201 59.0798 76.6463 59.0686 76.5771 59.0429C76.508 59.0171 76.445 58.9773 76.3923 58.926C76.3396 58.8747 76.2983 58.8131 76.271 58.745C76.2438 58.6769 76.2312 58.604 76.2341 58.5308C76.2341 58.3087 76.371 58.2178 76.5802 58.173L77.0838 58.0617C77.6134 57.9457 77.9801 57.8196 77.9801 57.3553C77.9801 57.0118 77.6642 56.7349 77.1299 56.7349ZM76.9821 57.86L76.5289 57.9705C76.4263 57.9907 76.3292 58.032 76.2437 58.0917L76.2543 58.0165C76.3354 57.3957 76.6715 56.9618 77.0992 56.9618C77.1531 56.9584 77.2072 56.9664 77.2578 56.9851C77.3085 57.0039 77.3545 57.033 77.393 57.0707C77.4314 57.1083 77.4614 57.1536 77.4809 57.2036C77.5005 57.2535 77.5091 57.307 77.5063 57.3605C77.5063 57.6479 77.2874 57.7839 76.9821 57.86Z" fill="#242424"/>
<path d="M99.3551 56.7349C98.4233 56.7349 97.9653 57.587 97.9653 58.3943C97.9653 59.0299 98.2961 59.4186 98.9068 59.4186C99.114 59.4104 99.3165 59.3541 99.4978 59.2542C99.679 59.1543 99.8341 59.0136 99.9504 58.8434L99.8693 58.7626C99.6312 58.9616 99.3306 59.0723 99.0191 59.0756C98.9453 59.0798 98.8715 59.0686 98.8023 59.0429C98.7332 59.0171 98.6702 58.9773 98.6175 58.926C98.5648 58.8747 98.5235 58.8131 98.4962 58.745C98.469 58.6769 98.4564 58.604 98.4593 58.5308C98.4593 58.3087 98.5962 58.2178 98.8054 58.173L99.3091 58.0617C99.8386 57.9457 100.205 57.8196 100.205 57.3553C100.205 57.0118 99.8895 56.7349 99.3551 56.7349ZM99.2073 57.86L98.7541 57.9705C98.6515 57.9907 98.5544 58.032 98.469 58.0917L98.4795 58.0165C98.5606 57.3957 98.8967 56.9618 99.3244 56.9618C99.3784 56.9584 99.4324 56.9664 99.483 56.9851C99.5337 57.0039 99.5797 57.033 99.6182 57.0707C99.6566 57.1083 99.6866 57.1536 99.7061 57.2036C99.7257 57.2535 99.7343 57.307 99.7315 57.3605C99.7315 57.6479 99.5126 57.7839 99.2073 57.86Z" fill="#242424"/>
<path d="M102.851 58.5811L103.167 56.7903H102.749C102.696 56.9305 102.659 57.0758 102.637 57.2238C102.59 57.0767 102.495 56.9491 102.367 56.8608C102.239 56.7725 102.086 56.7283 101.93 56.7351C101.059 56.7351 100.683 57.6229 100.683 58.425C100.683 59.0049 100.993 59.4184 101.533 59.4184C101.718 59.417 101.899 59.3638 102.055 59.2647C102.21 59.1657 102.335 59.025 102.413 58.8589C102.401 58.9169 102.396 58.9761 102.398 59.0354C102.398 59.2519 102.515 59.3936 102.785 59.3936C102.948 59.3938 103.107 59.3463 103.243 59.2571L103.274 59.0806C103.196 59.1178 103.111 59.1384 103.024 59.141C102.81 59.141 102.774 59.0049 102.851 58.5811ZM101.67 59.1462C101.334 59.1462 101.166 58.8132 101.166 58.4145C101.166 57.8646 101.395 57.012 102 57.012C102.337 57.012 102.5 57.3303 102.5 57.7185C102.5 58.2685 102.281 59.1462 101.67 59.1462Z" fill="#242424"/>
</svg>
